<svg width="398" height="144" viewBox="0 0 398 144" fill="none" xmlns="http://www.w3.org/2000/svg">
<g filter="url(#filter0_i_33_3)">
<rect x="14" y="13" width="369" height="116" rx="20" fill="#315949" fill-opacity="0.2"/>
</g>
<rect x="13" y="12" width="371" height="118" rx="21" stroke="#6FFFC3" stroke-width="2"/>
<g clip-path="url(#clip0_33_3)">
<g filter="url(#filter1_f_33_3)">
<ellipse cx="325" cy="238.5" rx="198" ry="212.5" fill="#5DBA94" fill-opacity="0.54"/>
</g>
</g>
<path d="M51.38 96V53.66H60.66C63.2893 53.66 65.5707 54.2013 67.504 55.284C69.476 56.328 71.0033 57.8167 72.086 59.75C73.1687 61.6447 73.71 63.868 73.71 66.42V83.24C73.71 85.792 73.1687 88.0347 72.086 89.968C71.0033 91.8627 69.476 93.3513 67.504 94.434C65.5707 95.478 63.2893 96 60.66 96H51.38ZM54.28 93.332H60.66C63.7147 93.332 66.17 92.4233 68.026 90.606C69.882 88.75 70.81 86.2947 70.81 83.24V66.42C70.81 63.404 69.8627 60.968 67.968 59.112C66.112 57.256 63.676 56.328 60.66 56.328H54.28V93.332ZM94.3353 96.58C90.778 96.58 87.994 95.536 85.9833 93.448C83.9727 91.3213 82.9673 88.4987 82.9673 84.98V75.12C82.9673 71.6013 83.9727 68.798 85.9833 66.71C88.0327 64.5833 90.8167 63.52 94.3353 63.52C97.854 63.52 100.599 64.5833 102.571 66.71C104.582 68.798 105.587 71.6013 105.587 75.12V80.63H85.8673V84.98C85.8673 87.764 86.602 89.968 88.0713 91.592C89.5407 93.216 91.6287 94.028 94.3353 94.028C96.5007 94.028 98.318 93.506 99.7873 92.462C101.257 91.418 102.146 89.9873 102.455 88.17H105.355C104.891 90.7607 103.673 92.81 101.701 94.318C99.768 95.826 97.3127 96.58 94.3353 96.58ZM85.8673 78.136H102.687V75.12C102.687 72.336 101.953 70.132 100.483 68.508C99.0527 66.884 97.0033 66.072 94.3353 66.072C91.6287 66.072 89.5407 66.884 88.0713 68.508C86.602 70.0933 85.8673 72.2973 85.8673 75.12V78.136ZM124.357 96L113.395 64.1H116.527L124.589 87.88C124.937 88.924 125.246 90.0067 125.517 91.128C125.826 92.2107 126.058 93.0807 126.213 93.738C126.329 93.0807 126.541 92.2107 126.851 91.128C127.16 90.0067 127.489 88.924 127.837 87.88L135.783 64.1H138.915L127.953 96H124.357ZM158.032 96.58C154.629 96.58 151.884 95.536 149.796 93.448C147.747 91.3213 146.722 88.4987 146.722 84.98V75.12C146.722 71.6013 147.747 68.798 149.796 66.71C151.884 64.5833 154.629 63.52 158.032 63.52C161.473 63.52 164.219 64.5833 166.268 66.71C168.317 68.798 169.342 71.6013 169.342 75.12V84.98C169.342 88.4987 168.317 91.3213 166.268 93.448C164.219 95.536 161.473 96.58 158.032 96.58ZM158.032 94.028C160.7 94.028 162.769 93.2353 164.238 91.65C165.707 90.0647 166.442 87.8413 166.442 84.98V75.12C166.442 72.2587 165.688 70.0353 164.18 68.45C162.711 66.8647 160.661 66.072 158.032 66.072C155.403 66.072 153.334 66.8647 151.826 68.45C150.357 70.0353 149.622 72.2587 149.622 75.12V84.98C149.622 87.8413 150.357 90.0647 151.826 91.65C153.295 93.2353 155.364 94.028 158.032 94.028ZM193.969 96C191.379 96 189.368 95.3233 187.937 93.97C186.545 92.6167 185.849 90.6833 185.849 88.17V56.27H175.409V53.66H188.749V88.17C188.749 91.65 190.489 93.39 193.969 93.39H203.829V96H193.969ZM221.729 96.58C218.287 96.58 215.581 95.536 213.609 93.448C211.637 91.3213 210.651 88.4213 210.651 84.748V64.1H213.551V84.748C213.551 87.648 214.266 89.91 215.697 91.534C217.166 93.158 219.177 93.97 221.729 93.97C224.319 93.97 226.349 93.158 227.819 91.534C229.288 89.91 230.023 87.648 230.023 84.748V64.1H232.923V84.748C232.923 88.3827 231.917 91.2633 229.907 93.39C227.935 95.5167 225.209 96.58 221.729 96.58ZM239.889 55.4H248.096V87.764H249.372L254.186 58.88H268.744L273.587 87.764H274.834V55.4H283.041V96H266.917L262.161 67.203H260.769L256.013 96H239.889V55.4ZM241.629 57.14V94.26H254.418L259.464 65.55H263.466L268.512 94.26H281.272V57.14H276.574V89.533H272.253L267.207 60.765H255.694L250.648 89.533H246.327V57.14H241.629ZM287.109 96V55.4H313.499V63.607H295.316V71.408H311.498V79.615H295.316V87.793H313.499V96H287.109ZM288.907 94.202H311.904V89.504H293.605V77.846H309.903V73.148H293.605V61.809H311.904V57.111H288.907V94.202ZM317.577 96V55.4H340.255L346.229 61.374V71.727L343.648 74.308L347.534 78.223V90.026L341.56 96H317.577ZM319.404 94.289H340.661L345.794 89.185V78.89L341.386 74.453H341.038L344.46 71.031V62.157L339.385 57.082H319.404V94.289ZM324.102 89.591V77.585H337.645L341.096 81.007V86.865L338.341 89.591H324.102ZM324.102 72.887V61.78H337.065L339.762 64.477V69.117L335.934 72.887H324.102ZM325.784 87.793H337.558L339.327 86.024V81.935L336.775 79.383H325.784V87.793ZM325.784 71.176H335.151L338.051 68.305V65.376L336.282 63.607H325.784V71.176Z" fill="white"/>
<g filter="url(#filter2_f_33_3)">
<path d="M62.9602 93H50.6023V50.8182H63.7017C67.7249 50.8182 71.1645 51.6558 74.0206 53.331C76.8904 55.0062 79.0874 57.4091 80.6115 60.5398C82.1357 63.6705 82.8977 67.4259 82.8977 71.8061C82.8977 76.2275 82.1151 80.0241 80.5497 83.196C78.9981 86.3542 76.7325 88.7777 73.7528 90.4666C70.7869 92.1555 67.1894 93 62.9602 93ZM54.4538 89.5398H62.7337C66.3587 89.5398 69.3932 88.8258 71.8374 87.3977C74.2815 85.9697 76.1146 83.9306 77.3366 81.2805C78.5587 78.6304 79.1697 75.4723 79.1697 71.8061C79.156 68.1674 78.5518 65.0367 77.3572 62.4141C76.1764 59.7914 74.4188 57.7798 72.0845 56.3793C69.764 54.9787 66.8942 54.2784 63.4751 54.2784H54.4538V89.5398ZM104.262 93.6591C101.309 93.6591 98.7554 92.9725 96.5996 91.5994C94.4438 90.2126 92.7755 88.2971 91.5946 85.853C90.4275 83.3951 89.8439 80.5665 89.8439 77.3672C89.8439 74.1816 90.4275 71.353 91.5946 68.8814C92.7755 66.3961 94.4026 64.4531 96.476 63.0526C98.5632 61.6383 100.973 60.9311 103.705 60.9311C105.422 60.9311 107.076 61.2469 108.669 61.8785C110.262 62.4964 111.69 63.4508 112.953 64.7415C114.23 66.0185 115.24 67.6319 115.981 69.5817C116.722 71.5178 117.093 73.8108 117.093 76.4609V78.2734H92.3773V75.0398H113.345C113.345 73.0076 112.933 71.1813 112.109 69.5611C111.299 67.9271 110.166 66.6364 108.71 65.6889C107.269 64.7415 105.6 64.2678 103.705 64.2678C101.701 64.2678 99.9363 64.8033 98.4121 65.8743C96.888 66.9453 95.6934 68.3596 94.8283 70.1172C93.977 71.8748 93.5444 73.7971 93.5307 75.8842V77.8203C93.5307 80.3331 93.9632 82.5301 94.8283 84.4112C95.7071 86.2786 96.9498 87.7273 98.5563 88.7571C100.163 89.7869 102.065 90.3018 104.262 90.3018C105.758 90.3018 107.07 90.0684 108.195 89.6016C109.335 89.1347 110.289 88.5099 111.058 87.7273C111.841 86.9309 112.432 86.0589 112.83 85.1115L116.311 86.2443C115.83 87.5762 115.04 88.8052 113.942 89.9311C112.857 91.0571 111.498 91.9633 109.864 92.6499C108.244 93.3227 106.376 93.6591 104.262 93.6591ZM148.699 61.3636L137.144 93H133.231L121.676 61.3636H125.651L135.043 88.1598H135.331L144.724 61.3636H148.699ZM167.035 93.6591C164.302 93.6591 161.886 92.9657 159.785 91.5788C157.698 90.192 156.064 88.2765 154.883 85.8324C153.702 83.3745 153.112 80.5391 153.112 77.326C153.112 74.0855 153.702 71.2363 154.883 68.7784C156.064 66.3068 157.698 64.3845 159.785 63.0114C161.886 61.6245 164.302 60.9311 167.035 60.9311C169.767 60.9311 172.177 61.6245 174.264 63.0114C176.351 64.3982 177.985 66.3205 179.166 68.7784C180.361 71.2363 180.958 74.0855 180.958 77.326C180.958 80.5391 180.368 83.3745 179.187 85.8324C178.006 88.2765 176.365 90.192 174.264 91.5788C172.177 92.9657 169.767 93.6591 167.035 93.6591ZM167.035 90.3018C169.232 90.3018 171.092 89.7114 172.616 88.5305C174.141 87.3497 175.294 85.7775 176.077 83.8139C176.873 81.8504 177.271 79.6877 177.271 77.326C177.271 74.9643 176.873 72.7947 176.077 70.8175C175.294 68.8402 174.141 67.2543 172.616 66.0597C171.092 64.8651 169.232 64.2678 167.035 64.2678C164.852 64.2678 162.991 64.8651 161.453 66.0597C159.929 67.2543 158.769 68.8402 157.972 70.8175C157.19 72.7947 156.798 74.9643 156.798 77.326C156.798 79.6877 157.19 81.8504 157.972 83.8139C158.769 85.7775 159.929 87.3497 161.453 88.5305C162.977 89.7114 164.838 90.3018 167.035 90.3018ZM192.672 50.8182V93H189.006V50.8182H192.672ZM222.476 80.9098V61.3636H226.142V93H222.476V87.7479H222.187C221.446 89.3681 220.272 90.7206 218.665 91.8054C217.059 92.8764 215.095 93.4119 212.775 93.4119C210.756 93.4119 208.964 92.9725 207.399 92.0938C205.834 91.2012 204.605 89.8968 203.712 88.1804C202.82 86.464 202.373 84.3563 202.373 81.8572V61.3636H206.04V81.6307C206.04 84.1023 206.767 86.0933 208.223 87.6037C209.678 89.1004 211.546 89.8487 213.825 89.8487C215.253 89.8487 216.626 89.5054 217.944 88.8189C219.263 88.1323 220.347 87.13 221.199 85.8118C222.05 84.4799 222.476 82.8459 222.476 80.9098ZM234.633 52.4H242.84V84.764H244.116L248.93 55.88H263.488L268.331 84.764H269.578V52.4H277.785V93H261.661L256.905 64.203H255.513L250.757 93H234.633V52.4ZM236.866 54.604V90.767H248.727L253.86 62.115H258.558L263.662 90.767H275.552V54.604H271.811V86.997H266.678L261.545 58.316H250.844L245.74 86.997H240.578V54.604H236.866ZM284.753 93V52.4H311.143V60.607H292.96V68.408H309.142V76.615H292.96V84.793H311.143V93H284.753ZM287.044 90.68H309.171V86.968H290.785V74.353H307.141V70.641H290.785V58.316H309.171V54.575H287.044V90.68ZM318.121 93V52.4H340.799L346.773 58.374V68.727L344.192 71.308L348.078 75.223V87.026L342.104 93H318.121ZM320.47 90.796H340.944L345.845 85.895V76.064L341.35 71.54H340.828L344.511 67.857V59.36L339.668 54.517H320.47V90.796ZM324.182 87.084V74.092H338.479L342.133 77.717V84.097L339.117 87.084H324.182ZM324.182 70.351V58.258H337.841L340.799 61.158V66.349L336.739 70.351H324.182ZM326.328 84.793H338.102L339.871 83.024V78.935L337.319 76.383H326.328V84.793ZM326.328 68.176H335.695L338.595 65.305V62.376L336.826 60.607H326.328V68.176Z" fill="white" fill-opacity="0.46"/>
</g>
<defs>
<filter id="filter0_i_33_3" x="12" y="11" width="373" height="120" filterUnits="userSpaceOnUse" color-interpolation-filters="sRGB">
<feFlood flood-opacity="0" result="BackgroundImageFix"/>
<feBlend mode="normal" in="SourceGraphic" in2="BackgroundImageFix" result="shape"/>
<feColorMatrix in="SourceAlpha" type="matrix" values="0 0 0 0 0 0 0 0 0 0 0 0 0 0 0 0 0 0 127 0" result="hardAlpha"/>
<feOffset/>
<feGaussianBlur stdDeviation="11.85"/>
<feComposite in2="hardAlpha" operator="arithmetic" k2="-1" k3="1"/>
<feColorMatrix type="matrix" values="0 0 0 0 0.309653 0 0 0 0 0.758333 0 0 0 0 0.573009 0 0 0 1 0"/>
<feBlend mode="normal" in2="shape" result="effect1_innerShadow_33_3"/>
</filter>
<filter id="filter1_f_33_3" x="22.4" y="-78.6" width="605.2" height="634.2" filterUnits="userSpaceOnUse" color-interpolation-filters="sRGB">
<feFlood flood-opacity="0" result="BackgroundImageFix"/>
<feBlend mode="normal" in="SourceGraphic" in2="BackgroundImageFix" result="shape"/>
<feGaussianBlur stdDeviation="52.3" result="effect1_foregroundBlur_33_3"/>
</filter>
<filter id="filter2_f_33_3" x="0.702049" y="0.918114" width="397.276" height="142.641" filterUnits="userSpaceOnUse" color-interpolation-filters="sRGB">
<feFlood flood-opacity="0" result="BackgroundImageFix"/>
<feBlend mode="normal" in="SourceGraphic" in2="BackgroundImageFix" result="shape"/>
<feGaussianBlur stdDeviation="24.95" result="effect1_foregroundBlur_33_3"/>
</filter>
<clipPath id="clip0_33_3">
<rect x="14" y="13" width="369" height="116" rx="20" fill="white"/>
</clipPath>
</defs>
</svg>
