<svg width="530" height="241" viewBox="0 0 530 241" fill="none" xmlns="http://www.w3.org/2000/svg">
<rect width="530" height="223" rx="20" fill="#FF5457"/>
<g filter="url(#filter0_d_40_76)">
<rect x="108" y="87" width="314" height="105" rx="20" fill="black"/>
</g>
<path d="M26.08 59V26.312H36.832C39.968 26.312 42.768 26.968 45.232 28.28C47.696 29.592 49.632 31.48 51.04 33.944C52.448 36.376 53.152 39.304 53.152 42.728C53.152 46.216 52.432 49.176 50.992 51.608C49.584 54.008 47.648 55.848 45.184 57.128C42.72 58.376 39.92 59 36.784 59H26.08ZM30.88 55.544L29.44 54.488H36.544C38.688 54.488 40.624 54.072 42.352 53.24C44.112 52.376 45.52 51.08 46.576 49.352C47.632 47.624 48.16 45.416 48.16 42.728C48.16 40.136 47.632 37.96 46.576 36.2C45.552 34.408 44.16 33.064 42.4 32.168C40.672 31.272 38.736 30.824 36.592 30.824H29.104L30.88 29.096V55.544ZM67.6821 59.48C65.4101 59.48 63.4101 58.984 61.6821 57.992C59.9541 56.968 58.6101 55.544 57.6501 53.72C56.6901 51.896 56.2101 49.768 56.2101 47.336C56.2101 44.872 56.6901 42.728 57.6501 40.904C58.6101 39.08 59.9541 37.656 61.6821 36.632C63.4101 35.608 65.4101 35.096 67.6821 35.096C69.9861 35.096 72.0021 35.608 73.7301 36.632C75.4581 37.656 76.8021 39.08 77.7621 40.904C78.7221 42.728 79.2021 44.872 79.2021 47.336C79.2021 47.56 79.1861 47.8 79.1541 48.056C79.1541 48.28 79.1381 48.488 79.1061 48.68H60.7701V44.552H75.6501L74.3061 47.336C74.3061 44.904 73.7621 42.904 72.6741 41.336C71.5861 39.768 69.9221 38.984 67.6821 38.984C65.6981 38.984 64.1141 39.624 62.9301 40.904C61.7461 42.152 61.1541 43.8 61.1541 45.848V48.344C61.1541 50.488 61.7301 52.2 62.8821 53.48C64.0341 54.728 65.6341 55.352 67.6821 55.352C69.5701 55.352 71.0261 54.952 72.0501 54.152C73.0741 53.352 73.9701 52.36 74.7381 51.176L78.3381 53.432C77.2501 55.448 75.8421 56.968 74.1141 57.992C72.4181 58.984 70.2741 59.48 67.6821 59.48ZM103.458 35.576L94.6255 59H90.0655L80.7535 35.576H86.0815L92.6095 53.768H91.9855L98.2255 35.576H103.458ZM117.195 59.48C114.827 59.48 112.731 58.984 110.907 57.992C109.115 56.968 107.723 55.544 106.73 53.72C105.738 51.896 105.243 49.768 105.243 47.336C105.243 44.872 105.738 42.728 106.73 40.904C107.723 39.08 109.115 37.656 110.907 36.632C112.731 35.608 114.827 35.096 117.195 35.096C119.595 35.096 121.691 35.608 123.483 36.632C125.275 37.656 126.667 39.08 127.659 40.904C128.683 42.728 129.195 44.872 129.195 47.336C129.195 49.768 128.683 51.896 127.659 53.72C126.667 55.544 125.275 56.968 123.483 57.992C121.691 58.984 119.595 59.48 117.195 59.48ZM117.195 54.872C119.339 54.872 121.051 54.184 122.331 52.808C123.643 51.4 124.299 49.576 124.299 47.336C124.299 45.064 123.643 43.224 122.331 41.816C121.051 40.408 119.339 39.704 117.195 39.704C115.083 39.704 113.371 40.408 112.059 41.816C110.779 43.192 110.139 45.016 110.139 47.288C110.139 49.56 110.779 51.4 112.059 52.808C113.371 54.184 115.083 54.872 117.195 54.872ZM138 59.24C137.168 59.24 136.432 59.048 135.792 58.664C135.152 58.248 134.64 57.656 134.256 56.888C133.904 56.12 133.728 55.176 133.728 54.056V26.312H138.432V52.376C138.432 53.368 138.672 54.04 139.152 54.392C139.664 54.744 140.24 54.92 140.88 54.92V58.76C140.464 58.92 140.016 59.032 139.536 59.096C139.056 59.192 138.544 59.24 138 59.24ZM165.801 35.576L156.969 59H152.409L143.097 35.576H148.425L154.953 53.768H154.329L160.569 35.576H165.801ZM175.759 59.672C173.935 59.672 172.367 59.352 171.055 58.712C169.743 58.072 168.735 57.16 168.031 55.976C167.359 54.76 167.023 53.32 167.023 51.656C167.023 50.12 167.375 48.76 168.079 47.576C168.783 46.36 169.791 45.4 171.103 44.696C172.415 43.992 173.967 43.64 175.759 43.64C177.999 43.64 179.791 44.152 181.135 45.176C182.511 46.168 183.471 47.544 184.015 49.304H181.327V43.304C181.327 42.312 180.991 41.4 180.319 40.568C179.647 39.736 178.463 39.32 176.767 39.32C175.871 39.32 174.879 39.432 173.791 39.656C172.735 39.848 171.631 40.2 170.479 40.712L169.039 37.016C170.351 36.376 171.711 35.896 173.119 35.576C174.527 35.256 175.903 35.096 177.247 35.096C179.263 35.096 180.927 35.464 182.239 36.2C183.551 36.936 184.527 37.928 185.167 39.176C185.807 40.392 186.127 41.768 186.127 43.304V59H182.671L181.471 54.728L184.015 54.008C183.439 55.896 182.415 57.32 180.943 58.28C179.471 59.208 177.743 59.672 175.759 59.672ZM176.623 55.4C178.031 55.4 179.167 55.08 180.031 54.44C180.895 53.768 181.327 52.84 181.327 51.656C181.327 50.44 180.895 49.512 180.031 48.872C179.167 48.232 178.031 47.912 176.623 47.912C175.215 47.912 174.079 48.232 173.215 48.872C172.351 49.512 171.919 50.44 171.919 51.656C171.919 52.84 172.351 53.768 173.215 54.44C174.079 55.08 175.215 55.4 176.623 55.4ZM214.876 59.48C212.476 59.48 210.396 58.968 208.636 57.944C206.876 56.888 205.516 55.448 204.556 53.624C203.596 51.8 203.116 49.688 203.116 47.288C203.116 44.888 203.596 42.776 204.556 40.952C205.516 39.128 206.876 37.704 208.636 36.68C210.396 35.624 212.476 35.096 214.876 35.096C217.148 35.096 219.212 35.72 221.068 36.968C222.924 38.184 224.268 39.816 225.1 41.864L220.54 43.784C220.028 42.44 219.26 41.432 218.236 40.76C217.212 40.056 216.044 39.704 214.732 39.704C212.812 39.704 211.212 40.376 209.932 41.72C208.652 43.032 208.012 44.888 208.012 47.288C208.012 49.688 208.652 51.56 209.932 52.904C211.212 54.216 212.812 54.872 214.732 54.872C216.044 54.872 217.212 54.536 218.236 53.864C219.26 53.16 220.028 52.136 220.54 50.792L225.1 52.712C224.236 54.76 222.876 56.408 221.02 57.656C219.196 58.872 217.148 59.48 214.876 59.48ZM239.304 59.48C236.936 59.48 234.84 58.984 233.016 57.992C231.224 56.968 229.832 55.544 228.84 53.72C227.848 51.896 227.352 49.768 227.352 47.336C227.352 44.872 227.848 42.728 228.84 40.904C229.832 39.08 231.224 37.656 233.016 36.632C234.84 35.608 236.936 35.096 239.304 35.096C241.704 35.096 243.8 35.608 245.592 36.632C247.384 37.656 248.776 39.08 249.768 40.904C250.792 42.728 251.304 44.872 251.304 47.336C251.304 49.768 250.792 51.896 249.768 53.72C248.776 55.544 247.384 56.968 245.592 57.992C243.8 58.984 241.704 59.48 239.304 59.48ZM239.304 54.872C241.448 54.872 243.16 54.184 244.44 52.808C245.752 51.4 246.408 49.576 246.408 47.336C246.408 45.064 245.752 43.224 244.44 41.816C243.16 40.408 241.448 39.704 239.304 39.704C237.192 39.704 235.48 40.408 234.168 41.816C232.888 43.192 232.248 45.016 232.248 47.288C232.248 49.56 232.888 51.4 234.168 52.808C235.48 54.184 237.192 54.872 239.304 54.872ZM255.838 59V35.576H259.486L260.494 39.704L259.294 39.848C260.158 38.824 261.07 37.96 262.03 37.256C262.99 36.552 264.014 36.024 265.102 35.672C266.19 35.288 267.326 35.096 268.51 35.096C270.174 35.096 271.486 35.384 272.446 35.96C273.406 36.504 274.11 37.256 274.558 38.216C275.006 39.144 275.294 40.2 275.422 41.384C275.55 42.568 275.614 43.784 275.614 45.032V59H270.814V44.024C270.814 42.36 270.43 41.24 269.662 40.664C268.926 40.088 268.046 39.8 267.022 39.8C265.55 39.8 264.142 40.264 262.798 41.192C261.454 42.088 260.478 43.176 259.87 44.456V41.768H260.638V59H255.838ZM285.79 59V44.024C285.79 42.36 285.406 41.24 284.638 40.664C283.902 40.088 283.022 39.8 281.998 39.8C280.526 39.8 279.118 40.264 277.774 41.192C276.43 42.088 275.454 43.176 274.846 44.456L274.27 39.848C275.134 38.824 276.046 37.96 277.006 37.256C277.966 36.552 278.99 36.024 280.078 35.672C281.166 35.288 282.302 35.096 283.486 35.096C285.15 35.096 286.462 35.384 287.422 35.96C288.382 36.504 289.086 37.256 289.534 38.216C289.982 39.144 290.27 40.2 290.398 41.384C290.526 42.568 290.59 43.784 290.59 45.032V59H285.79ZM310.77 59V33.272C310.77 31.576 311.042 30.184 311.586 29.096C312.13 28.008 312.898 27.208 313.89 26.696C314.882 26.152 316.066 25.88 317.442 25.88C318.082 25.88 318.658 25.928 319.17 26.024C319.682 26.12 320.146 26.232 320.562 26.36V30.824C320.21 30.76 319.858 30.712 319.506 30.68C319.186 30.616 318.802 30.584 318.354 30.584C317.65 30.584 317.01 30.824 316.434 31.304C315.858 31.752 315.57 32.536 315.57 33.656V59H310.77ZM320.082 39.992H307.17V35.576H320.082V39.992ZM330.915 59.672C329.091 59.672 327.523 59.352 326.211 58.712C324.899 58.072 323.891 57.16 323.187 55.976C322.515 54.76 322.179 53.32 322.179 51.656C322.179 50.12 322.531 48.76 323.235 47.576C323.939 46.36 324.947 45.4 326.259 44.696C327.571 43.992 329.123 43.64 330.915 43.64C333.155 43.64 334.947 44.152 336.291 45.176C337.667 46.168 338.627 47.544 339.171 49.304H336.483V43.304C336.483 42.312 336.147 41.4 335.475 40.568C334.803 39.736 333.619 39.32 331.923 39.32C331.027 39.32 330.035 39.432 328.947 39.656C327.891 39.848 326.787 40.2 325.635 40.712L324.195 37.016C325.507 36.376 326.867 35.896 328.275 35.576C329.683 35.256 331.059 35.096 332.403 35.096C334.419 35.096 336.083 35.464 337.395 36.2C338.707 36.936 339.683 37.928 340.323 39.176C340.963 40.392 341.283 41.768 341.283 43.304V59H337.827L336.627 54.728L339.171 54.008C338.595 55.896 337.571 57.32 336.099 58.28C334.627 59.208 332.899 59.672 330.915 59.672ZM331.779 55.4C333.187 55.4 334.323 55.08 335.187 54.44C336.051 53.768 336.483 52.84 336.483 51.656C336.483 50.44 336.051 49.512 335.187 48.872C334.323 48.232 333.187 47.912 331.779 47.912C330.371 47.912 329.235 48.232 328.371 48.872C327.507 49.512 327.075 50.44 327.075 51.656C327.075 52.84 327.507 53.768 328.371 54.44C329.235 55.08 330.371 55.4 331.779 55.4ZM357.564 59.48C355.164 59.48 353.084 58.968 351.324 57.944C349.564 56.888 348.204 55.448 347.244 53.624C346.284 51.8 345.804 49.688 345.804 47.288C345.804 44.888 346.284 42.776 347.244 40.952C348.204 39.128 349.564 37.704 351.324 36.68C353.084 35.624 355.164 35.096 357.564 35.096C359.836 35.096 361.9 35.72 363.756 36.968C365.612 38.184 366.956 39.816 367.788 41.864L363.228 43.784C362.716 42.44 361.948 41.432 360.924 40.76C359.9 40.056 358.732 39.704 357.42 39.704C355.5 39.704 353.9 40.376 352.62 41.72C351.34 43.032 350.7 44.888 350.7 47.288C350.7 49.688 351.34 51.56 352.62 52.904C353.9 54.216 355.5 54.872 357.42 54.872C358.732 54.872 359.9 54.536 360.924 53.864C361.948 53.16 362.716 52.136 363.228 50.792L367.788 52.712C366.924 54.76 365.564 56.408 363.708 57.656C361.884 58.872 359.836 59.48 357.564 59.48ZM376.562 59H371.762V35.576H376.562V59ZM371.042 28.376C371.042 27.448 371.314 26.696 371.858 26.12C372.434 25.512 373.202 25.208 374.162 25.208C375.09 25.208 375.842 25.512 376.418 26.12C376.994 26.696 377.282 27.448 377.282 28.376C377.282 29.272 376.994 30.024 376.418 30.632C375.842 31.208 375.09 31.496 374.162 31.496C373.202 31.496 372.434 31.208 371.858 30.632C371.314 30.024 371.042 29.272 371.042 28.376ZM387.094 59.24C386.262 59.24 385.526 59.048 384.886 58.664C384.246 58.248 383.734 57.656 383.35 56.888C382.998 56.12 382.822 55.176 382.822 54.056V26.312H387.526V52.376C387.526 53.368 387.766 54.04 388.246 54.392C388.758 54.744 389.334 54.92 389.974 54.92V58.76C389.558 58.92 389.11 59.032 388.63 59.096C388.15 59.192 387.638 59.24 387.094 59.24ZM399.577 59H394.777V35.576H399.577V59ZM394.057 28.376C394.057 27.448 394.329 26.696 394.873 26.12C395.449 25.512 396.217 25.208 397.177 25.208C398.105 25.208 398.857 25.512 399.433 26.12C400.009 26.696 400.297 27.448 400.297 28.376C400.297 29.272 400.009 30.024 399.433 30.632C398.857 31.208 398.105 31.496 397.177 31.496C396.217 31.496 395.449 31.208 394.873 30.632C394.329 30.024 394.057 29.272 394.057 28.376ZM415.198 59.48C413.054 59.48 411.166 58.968 409.534 57.944C407.902 56.92 406.638 55.496 405.742 53.672C404.846 51.816 404.398 49.672 404.398 47.24C404.398 44.808 404.846 42.68 405.742 40.856C406.638 39.032 407.902 37.624 409.534 36.632C411.166 35.608 413.054 35.096 415.198 35.096C417.31 35.096 419.15 35.608 420.718 36.632C422.286 37.624 423.502 39.032 424.366 40.856C425.262 42.68 425.71 44.808 425.71 47.24C425.71 49.672 425.262 51.816 424.366 53.672C423.502 55.496 422.286 56.92 420.718 57.944C419.15 58.968 417.31 59.48 415.198 59.48ZM415.918 55.352C417.902 55.352 419.486 54.616 420.67 53.144C421.886 51.672 422.494 49.72 422.494 47.288C422.494 44.856 421.886 42.904 420.67 41.432C419.486 39.96 417.902 39.224 415.918 39.224C413.934 39.224 412.334 39.96 411.118 41.432C409.902 42.904 409.294 44.84 409.294 47.24C409.294 49.672 409.902 51.64 411.118 53.144C412.334 54.616 413.934 55.352 415.918 55.352ZM423.406 59L422.254 54.296H422.734V40.952H422.254V26.312H427.054V59H423.406ZM440.509 59.672C438.685 59.672 437.117 59.352 435.805 58.712C434.493 58.072 433.485 57.16 432.781 55.976C432.109 54.76 431.773 53.32 431.773 51.656C431.773 50.12 432.125 48.76 432.829 47.576C433.533 46.36 434.541 45.4 435.853 44.696C437.165 43.992 438.717 43.64 440.509 43.64C442.749 43.64 444.541 44.152 445.885 45.176C447.261 46.168 448.221 47.544 448.765 49.304H446.077V43.304C446.077 42.312 445.741 41.4 445.069 40.568C444.397 39.736 443.213 39.32 441.517 39.32C440.621 39.32 439.629 39.432 438.541 39.656C437.485 39.848 436.381 40.2 435.229 40.712L433.789 37.016C435.101 36.376 436.461 35.896 437.869 35.576C439.277 35.256 440.653 35.096 441.997 35.096C444.013 35.096 445.677 35.464 446.989 36.2C448.301 36.936 449.277 37.928 449.917 39.176C450.557 40.392 450.877 41.768 450.877 43.304V59H447.421L446.221 54.728L448.765 54.008C448.189 55.896 447.165 57.32 445.693 58.28C444.221 59.208 442.493 59.672 440.509 59.672ZM441.373 55.4C442.781 55.4 443.917 55.08 444.781 54.44C445.645 53.768 446.077 52.84 446.077 51.656C446.077 50.44 445.645 49.512 444.781 48.872C443.917 48.232 442.781 47.912 441.373 47.912C439.965 47.912 438.829 48.232 437.965 48.872C437.101 49.512 436.669 50.44 436.669 51.656C436.669 52.84 437.101 53.768 437.965 54.44C438.829 55.08 439.965 55.4 441.373 55.4ZM466.198 59.48C464.054 59.48 462.166 58.968 460.534 57.944C458.902 56.92 457.638 55.496 456.742 53.672C455.846 51.816 455.398 49.672 455.398 47.24C455.398 44.808 455.846 42.68 456.742 40.856C457.638 39.032 458.902 37.624 460.534 36.632C462.166 35.608 464.054 35.096 466.198 35.096C468.31 35.096 470.15 35.608 471.718 36.632C473.286 37.624 474.502 39.032 475.366 40.856C476.262 42.68 476.71 44.808 476.71 47.24C476.71 49.672 476.262 51.816 475.366 53.672C474.502 55.496 473.286 56.92 471.718 57.944C470.15 58.968 468.31 59.48 466.198 59.48ZM466.918 55.352C468.902 55.352 470.486 54.616 471.67 53.144C472.886 51.672 473.494 49.72 473.494 47.288C473.494 44.856 472.886 42.904 471.67 41.432C470.486 39.96 468.902 39.224 466.918 39.224C464.934 39.224 463.334 39.96 462.118 41.432C460.902 42.904 460.294 44.84 460.294 47.24C460.294 49.672 460.902 51.64 462.118 53.144C463.334 54.616 464.934 55.352 466.918 55.352ZM474.406 59L473.254 54.296H473.734V40.952H473.254V26.312H478.054V59H474.406ZM494.01 59.48C491.738 59.48 489.738 58.984 488.01 57.992C486.282 56.968 484.938 55.544 483.978 53.72C483.018 51.896 482.538 49.768 482.538 47.336C482.538 44.872 483.018 42.728 483.978 40.904C484.938 39.08 486.282 37.656 488.01 36.632C489.738 35.608 491.738 35.096 494.01 35.096C496.314 35.096 498.33 35.608 500.058 36.632C501.786 37.656 503.13 39.08 504.09 40.904C505.05 42.728 505.53 44.872 505.53 47.336C505.53 47.56 505.514 47.8 505.482 48.056C505.482 48.28 505.466 48.488 505.434 48.68H487.098V44.552H501.978L500.634 47.336C500.634 44.904 500.09 42.904 499.002 41.336C497.914 39.768 496.25 38.984 494.01 38.984C492.026 38.984 490.442 39.624 489.258 40.904C488.074 42.152 487.482 43.8 487.482 45.848V48.344C487.482 50.488 488.058 52.2 489.21 53.48C490.362 54.728 491.962 55.352 494.01 55.352C495.898 55.352 497.354 54.952 498.378 54.152C499.402 53.352 500.298 52.36 501.066 51.176L504.666 53.432C503.578 55.448 502.17 56.968 500.442 57.992C498.746 58.984 496.602 59.48 494.01 59.48Z" fill="black"/>
<path d="M286.571 141.125H223.667V131.875H286.571L257.637 105.975L265 99.5L306.333 136.5L265 173.5L257.637 167.025L286.571 141.125Z" fill="white"/>
<defs>
<filter id="filter0_d_40_76" x="81.7" y="82.7" width="366.6" height="157.6" filterUnits="userSpaceOnUse" color-interpolation-filters="sRGB">
<feFlood flood-opacity="0" result="BackgroundImageFix"/>
<feColorMatrix in="SourceAlpha" type="matrix" values="0 0 0 0 0 0 0 0 0 0 0 0 0 0 0 0 0 0 127 0" result="hardAlpha"/>
<feOffset dy="22"/>
<feGaussianBlur stdDeviation="13.15"/>
<feComposite in2="hardAlpha" operator="out"/>
<feColorMatrix type="matrix" values="0 0 0 0 0 0 0 0 0 0 0 0 0 0 0 0 0 0 0.3 0"/>
<feBlend mode="normal" in2="BackgroundImageFix" result="effect1_dropShadow_40_76"/>
<feBlend mode="normal" in="SourceGraphic" in2="effect1_dropShadow_40_76" result="shape"/>
</filter>
</defs>
</svg>
