<svg width="356" height="603" viewBox="0 0 356 603" fill="none" xmlns="http://www.w3.org/2000/svg">
<ellipse cx="178" cy="176.5" rx="178" ry="176.5" fill="#8EC2AC"/>
<path d="M111.667 240.505V122.333C111.667 119.11 112.791 116.4 115.095 114.096C117.4 111.791 120.109 110.667 123.333 110.667H232.666C235.89 110.667 238.6 111.791 240.904 114.096C243.209 116.4 244.333 119.11 244.333 122.333V204.333C244.333 207.557 243.209 210.267 240.904 212.571C238.6 214.876 235.89 216 232.666 216H137H136.171L135.586 216.586L111.667 240.505ZM232.666 206.333H234.666V204.333V122.333V120.333H232.666H123.333H121.333V122.333V212.021V216.775L124.732 213.451L132.007 206.333H232.666Z" fill="#E0F3EB" stroke="#8EC2AC" stroke-width="4"/>
<path d="M10.0059 401.84V397.328H22.7259V401.84H10.0059ZM10.9659 416H6.16594V383.312H25.5579V387.824H9.86194L10.9659 386.288V416ZM36.4071 416.672C34.5831 416.672 33.0151 416.352 31.7031 415.712C30.3911 415.072 29.3831 414.16 28.6791 412.976C28.0071 411.76 27.6711 410.32 27.6711 408.656C27.6711 407.12 28.0231 405.76 28.7271 404.576C29.4311 403.36 30.4391 402.4 31.7511 401.696C33.0631 400.992 34.6151 400.64 36.4071 400.64C38.6471 400.64 40.4391 401.152 41.7831 402.176C43.1591 403.168 44.1191 404.544 44.6631 406.304H41.9751V400.304C41.9751 399.312 41.6391 398.4 40.9671 397.568C40.2951 396.736 39.1111 396.32 37.4151 396.32C36.5191 396.32 35.5271 396.432 34.4391 396.656C33.3831 396.848 32.2791 397.2 31.1271 397.712L29.6871 394.016C30.9991 393.376 32.3591 392.896 33.7671 392.576C35.1751 392.256 36.5511 392.096 37.8951 392.096C39.9111 392.096 41.5751 392.464 42.8871 393.2C44.1991 393.936 45.1751 394.928 45.8151 396.176C46.4551 397.392 46.7751 398.768 46.7751 400.304V416H43.3191L42.1191 411.728L44.6631 411.008C44.0871 412.896 43.0631 414.32 41.5911 415.28C40.1191 416.208 38.3911 416.672 36.4071 416.672ZM37.2711 412.4C38.6791 412.4 39.8151 412.08 40.6791 411.44C41.5431 410.768 41.9751 409.84 41.9751 408.656C41.9751 407.44 41.5431 406.512 40.6791 405.872C39.8151 405.232 38.6791 404.912 37.2711 404.912C35.8631 404.912 34.7271 405.232 33.8631 405.872C32.9991 406.512 32.5671 407.44 32.5671 408.656C32.5671 409.84 32.9991 410.768 33.8631 411.44C34.7271 412.08 35.8631 412.4 37.2711 412.4ZM56.3049 416.24C55.4729 416.24 54.7369 416.048 54.0969 415.664C53.4569 415.248 52.9449 414.656 52.5609 413.888C52.2089 413.12 52.0329 412.176 52.0329 411.056V383.312H56.7369V409.376C56.7369 410.368 56.9769 411.04 57.4569 411.392C57.9689 411.744 58.5449 411.92 59.1849 411.92V415.76C58.7689 415.92 58.3209 416.032 57.8409 416.096C57.3609 416.192 56.8489 416.24 56.3049 416.24ZM73.9243 416.48C71.6523 416.48 69.6523 415.984 67.9243 414.992C66.1963 413.968 64.8523 412.544 63.8923 410.72C62.9323 408.896 62.4523 406.768 62.4523 404.336C62.4523 401.872 62.9323 399.728 63.8923 397.904C64.8523 396.08 66.1963 394.656 67.9243 393.632C69.6523 392.608 71.6523 392.096 73.9243 392.096C76.2283 392.096 78.2443 392.608 79.9723 393.632C81.7003 394.656 83.0443 396.08 84.0043 397.904C84.9643 399.728 85.4443 401.872 85.4443 404.336C85.4443 404.56 85.4283 404.8 85.3963 405.056C85.3963 405.28 85.3803 405.488 85.3483 405.68H67.0123V401.552H81.8923L80.5483 404.336C80.5483 401.904 80.0043 399.904 78.9163 398.336C77.8283 396.768 76.1643 395.984 73.9243 395.984C71.9403 395.984 70.3563 396.624 69.1723 397.904C67.9883 399.152 67.3963 400.8 67.3963 402.848V405.344C67.3963 407.488 67.9723 409.2 69.1243 410.48C70.2763 411.728 71.8763 412.352 73.9243 412.352C75.8123 412.352 77.2683 411.952 78.2923 411.152C79.3163 410.352 80.2123 409.36 80.9803 408.176L84.5803 410.432C83.4923 412.448 82.0843 413.968 80.3563 414.992C78.6603 415.984 76.5163 416.48 73.9243 416.48ZM112.744 416.48C110.344 416.48 108.264 415.968 106.504 414.944C104.744 413.888 103.384 412.448 102.424 410.624C101.464 408.8 100.984 406.688 100.984 404.288C100.984 401.888 101.464 399.776 102.424 397.952C103.384 396.128 104.744 394.704 106.504 393.68C108.264 392.624 110.344 392.096 112.744 392.096C115.016 392.096 117.08 392.72 118.936 393.968C120.792 395.184 122.136 396.816 122.968 398.864L118.408 400.784C117.896 399.44 117.128 398.432 116.104 397.76C115.08 397.056 113.912 396.704 112.6 396.704C110.68 396.704 109.08 397.376 107.8 398.72C106.52 400.032 105.88 401.888 105.88 404.288C105.88 406.688 106.52 408.56 107.8 409.904C109.08 411.216 110.68 411.872 112.6 411.872C113.912 411.872 115.08 411.536 116.104 410.864C117.128 410.16 117.896 409.136 118.408 407.792L122.968 409.712C122.104 411.76 120.744 413.408 118.888 414.656C117.064 415.872 115.016 416.48 112.744 416.48ZM137.171 416.48C134.803 416.48 132.707 415.984 130.883 414.992C129.091 413.968 127.699 412.544 126.707 410.72C125.715 408.896 125.219 406.768 125.219 404.336C125.219 401.872 125.715 399.728 126.707 397.904C127.699 396.08 129.091 394.656 130.883 393.632C132.707 392.608 134.803 392.096 137.171 392.096C139.571 392.096 141.667 392.608 143.459 393.632C145.251 394.656 146.643 396.08 147.635 397.904C148.659 399.728 149.171 401.872 149.171 404.336C149.171 406.768 148.659 408.896 147.635 410.72C146.643 412.544 145.251 413.968 143.459 414.992C141.667 415.984 139.571 416.48 137.171 416.48ZM137.171 411.872C139.315 411.872 141.027 411.184 142.307 409.808C143.619 408.4 144.275 406.576 144.275 404.336C144.275 402.064 143.619 400.224 142.307 398.816C141.027 397.408 139.315 396.704 137.171 396.704C135.059 396.704 133.347 397.408 132.035 398.816C130.755 400.192 130.115 402.016 130.115 404.288C130.115 406.56 130.755 408.4 132.035 409.808C133.347 411.184 135.059 411.872 137.171 411.872ZM167.097 392.096C168.761 392.096 170.073 392.384 171.033 392.96C171.993 393.504 172.697 394.256 173.145 395.216C173.593 396.144 173.881 397.2 174.009 398.384C174.137 399.568 174.201 400.784 174.201 402.032V416H169.401V401.024C169.401 399.36 169.017 398.24 168.249 397.664C167.513 397.088 166.633 396.8 165.609 396.8C164.585 396.8 163.545 397.008 162.489 397.424C161.433 397.84 160.489 398.4 159.657 399.104C158.825 399.808 158.185 400.592 157.737 401.456V398.768H158.505V416H153.705V392.576H157.353L158.361 396.704L157.161 396.848C158.057 395.824 159.033 394.96 160.089 394.256C161.145 393.552 162.265 393.024 163.449 392.672C164.633 392.288 165.849 392.096 167.097 392.096ZM190.468 416.48C188.1 416.48 186.004 415.984 184.18 414.992C182.388 413.968 180.996 412.544 180.004 410.72C179.012 408.896 178.516 406.768 178.516 404.336C178.516 401.872 179.012 399.728 180.004 397.904C180.996 396.08 182.388 394.656 184.18 393.632C186.004 392.608 188.1 392.096 190.468 392.096C192.868 392.096 194.964 392.608 196.756 393.632C198.548 394.656 199.94 396.08 200.932 397.904C201.956 399.728 202.468 401.872 202.468 404.336C202.468 406.768 201.956 408.896 200.932 410.72C199.94 412.544 198.548 413.968 196.756 414.992C194.964 415.984 192.868 416.48 190.468 416.48ZM190.468 411.872C192.612 411.872 194.324 411.184 195.604 409.808C196.916 408.4 197.572 406.576 197.572 404.336C197.572 402.064 196.916 400.224 195.604 398.816C194.324 397.408 192.612 396.704 190.468 396.704C188.356 396.704 186.644 397.408 185.332 398.816C184.052 400.192 183.412 402.016 183.412 404.288C183.412 406.56 184.052 408.4 185.332 409.808C186.644 411.184 188.356 411.872 190.468 411.872ZM214.255 416.48C212.623 416.48 211.007 416.096 209.407 415.328C207.839 414.56 206.543 413.248 205.519 411.392L209.167 408.992C210.063 410.176 210.911 411.04 211.711 411.584C212.511 412.096 213.551 412.352 214.831 412.352C215.855 412.352 216.639 412.096 217.183 411.584C217.759 411.04 218.047 410.384 218.047 409.616C218.047 409.104 217.903 408.656 217.615 408.272C217.359 407.888 216.895 407.536 216.223 407.216C215.551 406.864 214.591 406.528 213.343 406.208C211.039 405.6 209.263 404.8 208.015 403.808C206.767 402.816 206.143 401.248 206.143 399.104C206.143 397.824 206.463 396.656 207.103 395.6C207.743 394.544 208.671 393.696 209.887 393.056C211.103 392.416 212.543 392.096 214.207 392.096C216.191 392.096 217.887 392.512 219.295 393.344C220.703 394.144 221.807 395.104 222.607 396.224L218.911 398.96C218.463 398.384 217.807 397.824 216.943 397.28C216.079 396.704 214.991 396.416 213.679 396.416C212.879 396.416 212.143 396.64 211.471 397.088C210.799 397.536 210.463 398.16 210.463 398.96C210.463 399.76 210.767 400.416 211.375 400.928C212.015 401.408 213.167 401.84 214.831 402.224C217.647 402.896 219.647 403.776 220.831 404.864C222.015 405.92 222.607 407.328 222.607 409.088C222.607 410.624 222.207 411.952 221.407 413.072C220.639 414.16 219.615 415.008 218.335 415.616C217.087 416.192 215.727 416.48 214.255 416.48ZM237.572 416.48C235.172 416.48 233.092 415.968 231.332 414.944C229.572 413.888 228.212 412.448 227.252 410.624C226.292 408.8 225.812 406.688 225.812 404.288C225.812 401.888 226.292 399.776 227.252 397.952C228.212 396.128 229.572 394.704 231.332 393.68C233.092 392.624 235.172 392.096 237.572 392.096C239.844 392.096 241.908 392.72 243.764 393.968C245.62 395.184 246.964 396.816 247.796 398.864L243.236 400.784C242.724 399.44 241.956 398.432 240.932 397.76C239.908 397.056 238.74 396.704 237.428 396.704C235.508 396.704 233.908 397.376 232.628 398.72C231.348 400.032 230.708 401.888 230.708 404.288C230.708 406.688 231.348 408.56 232.628 409.904C233.908 411.216 235.508 411.872 237.428 411.872C238.74 411.872 239.908 411.536 240.932 410.864C241.956 410.16 242.724 409.136 243.236 407.792L247.796 409.712C246.932 411.76 245.572 413.408 243.716 414.656C241.892 415.872 239.844 416.48 237.572 416.48ZM261.999 416.48C259.631 416.48 257.535 415.984 255.711 414.992C253.919 413.968 252.527 412.544 251.535 410.72C250.543 408.896 250.047 406.768 250.047 404.336C250.047 401.872 250.543 399.728 251.535 397.904C252.527 396.08 253.919 394.656 255.711 393.632C257.535 392.608 259.631 392.096 261.999 392.096C264.399 392.096 266.495 392.608 268.287 393.632C270.079 394.656 271.471 396.08 272.463 397.904C273.487 399.728 273.999 401.872 273.999 404.336C273.999 406.768 273.487 408.896 272.463 410.72C271.471 412.544 270.079 413.968 268.287 414.992C266.495 415.984 264.399 416.48 261.999 416.48ZM261.999 411.872C264.143 411.872 265.855 411.184 267.135 409.808C268.447 408.4 269.103 406.576 269.103 404.336C269.103 402.064 268.447 400.224 267.135 398.816C265.855 397.408 264.143 396.704 261.999 396.704C259.887 396.704 258.175 397.408 256.863 398.816C255.583 400.192 254.943 402.016 254.943 404.288C254.943 406.56 255.583 408.4 256.863 409.808C258.175 411.184 259.887 411.872 261.999 411.872ZM301.268 416.48C298.996 416.48 296.996 415.984 295.268 414.992C293.54 413.968 292.196 412.544 291.236 410.72C290.276 408.896 289.796 406.768 289.796 404.336C289.796 401.872 290.276 399.728 291.236 397.904C292.196 396.08 293.54 394.656 295.268 393.632C296.996 392.608 298.996 392.096 301.268 392.096C303.572 392.096 305.588 392.608 307.316 393.632C309.044 394.656 310.388 396.08 311.348 397.904C312.308 399.728 312.788 401.872 312.788 404.336C312.788 404.56 312.772 404.8 312.74 405.056C312.74 405.28 312.724 405.488 312.692 405.68H294.356V401.552H309.236L307.892 404.336C307.892 401.904 307.348 399.904 306.26 398.336C305.172 396.768 303.508 395.984 301.268 395.984C299.284 395.984 297.7 396.624 296.516 397.904C295.332 399.152 294.74 400.8 294.74 402.848V405.344C294.74 407.488 295.316 409.2 296.468 410.48C297.62 411.728 299.22 412.352 301.268 412.352C303.156 412.352 304.612 411.952 305.636 411.152C306.66 410.352 307.556 409.36 308.324 408.176L311.924 410.432C310.836 412.448 309.428 413.968 307.7 414.992C306.004 415.984 303.86 416.48 301.268 416.48ZM317.299 416V392.576H320.947L321.955 396.704L320.755 396.848C321.619 395.824 322.531 394.96 323.491 394.256C324.451 393.552 325.475 393.024 326.563 392.672C327.651 392.288 328.787 392.096 329.971 392.096C331.635 392.096 332.947 392.384 333.907 392.96C334.867 393.504 335.571 394.256 336.019 395.216C336.467 396.144 336.755 397.2 336.883 398.384C337.011 399.568 337.075 400.784 337.075 402.032V416H332.275V401.024C332.275 399.36 331.891 398.24 331.123 397.664C330.387 397.088 329.507 396.8 328.483 396.8C327.011 396.8 325.603 397.264 324.259 398.192C322.915 399.088 321.939 400.176 321.331 401.456V398.768H322.099V416H317.299ZM347.251 416V401.024C347.251 399.36 346.867 398.24 346.099 397.664C345.363 397.088 344.483 396.8 343.459 396.8C341.987 396.8 340.579 397.264 339.235 398.192C337.891 399.088 336.915 400.176 336.307 401.456L335.731 396.848C336.595 395.824 337.507 394.96 338.467 394.256C339.427 393.552 340.451 393.024 341.539 392.672C342.627 392.288 343.763 392.096 344.947 392.096C346.611 392.096 347.923 392.384 348.883 392.96C349.843 393.504 350.547 394.256 350.995 395.216C351.443 396.144 351.731 397.2 351.859 398.384C351.987 399.568 352.051 400.784 352.051 402.032V416H347.251ZM24.9701 474.48C22.5701 474.48 20.4901 473.968 18.7301 472.944C16.9701 471.888 15.6101 470.448 14.6501 468.624C13.6901 466.8 13.2101 464.688 13.2101 462.288C13.2101 459.888 13.6901 457.776 14.6501 455.952C15.6101 454.128 16.9701 452.704 18.7301 451.68C20.4901 450.624 22.5701 450.096 24.9701 450.096C27.2421 450.096 29.3061 450.72 31.1621 451.968C33.0181 453.184 34.3621 454.816 35.1941 456.864L30.6341 458.784C30.1221 457.44 29.3541 456.432 28.3301 455.76C27.3061 455.056 26.1381 454.704 24.8261 454.704C22.9061 454.704 21.3061 455.376 20.0261 456.72C18.7461 458.032 18.1061 459.888 18.1061 462.288C18.1061 464.688 18.7461 466.56 20.0261 467.904C21.3061 469.216 22.9061 469.872 24.8261 469.872C26.1381 469.872 27.3061 469.536 28.3301 468.864C29.3541 468.16 30.1221 467.136 30.6341 465.792L35.1941 467.712C34.3301 469.76 32.9701 471.408 31.1141 472.656C29.2901 473.872 27.2421 474.48 24.9701 474.48ZM45.8993 474.672C44.0753 474.672 42.5073 474.352 41.1953 473.712C39.8833 473.072 38.8753 472.16 38.1713 470.976C37.4993 469.76 37.1633 468.32 37.1633 466.656C37.1633 465.12 37.5153 463.76 38.2193 462.576C38.9233 461.36 39.9313 460.4 41.2433 459.696C42.5553 458.992 44.1073 458.64 45.8993 458.64C48.1393 458.64 49.9313 459.152 51.2753 460.176C52.6513 461.168 53.6113 462.544 54.1553 464.304H51.4673V458.304C51.4673 457.312 51.1313 456.4 50.4593 455.568C49.7873 454.736 48.6033 454.32 46.9073 454.32C46.0113 454.32 45.0193 454.432 43.9313 454.656C42.8753 454.848 41.7713 455.2 40.6193 455.712L39.1793 452.016C40.4913 451.376 41.8513 450.896 43.2593 450.576C44.6673 450.256 46.0433 450.096 47.3873 450.096C49.4033 450.096 51.0673 450.464 52.3793 451.2C53.6913 451.936 54.6673 452.928 55.3073 454.176C55.9473 455.392 56.2673 456.768 56.2673 458.304V474H52.8113L51.6113 469.728L54.1553 469.008C53.5793 470.896 52.5553 472.32 51.0833 473.28C49.6113 474.208 47.8833 474.672 45.8993 474.672ZM46.7633 470.4C48.1713 470.4 49.3073 470.08 50.1713 469.44C51.0353 468.768 51.4673 467.84 51.4673 466.656C51.4673 465.44 51.0353 464.512 50.1713 463.872C49.3073 463.232 48.1713 462.912 46.7633 462.912C45.3553 462.912 44.2193 463.232 43.3553 463.872C42.4913 464.512 42.0593 465.44 42.0593 466.656C42.0593 467.84 42.4913 468.768 43.3553 469.44C44.2193 470.08 45.3553 470.4 46.7633 470.4ZM69.4819 474.48C67.8499 474.48 66.2339 474.096 64.6339 473.328C63.0659 472.56 61.7699 471.248 60.7459 469.392L64.3939 466.992C65.2899 468.176 66.1379 469.04 66.9379 469.584C67.7379 470.096 68.7779 470.352 70.0579 470.352C71.0819 470.352 71.8659 470.096 72.4099 469.584C72.9859 469.04 73.2739 468.384 73.2739 467.616C73.2739 467.104 73.1299 466.656 72.8419 466.272C72.5859 465.888 72.1219 465.536 71.4499 465.216C70.7779 464.864 69.8179 464.528 68.5699 464.208C66.2659 463.6 64.4899 462.8 63.2419 461.808C61.9939 460.816 61.3699 459.248 61.3699 457.104C61.3699 455.824 61.6899 454.656 62.3299 453.6C62.9699 452.544 63.8979 451.696 65.1139 451.056C66.3299 450.416 67.7699 450.096 69.4339 450.096C71.4179 450.096 73.1139 450.512 74.5219 451.344C75.9299 452.144 77.0339 453.104 77.8339 454.224L74.1379 456.96C73.6899 456.384 73.0339 455.824 72.1699 455.28C71.3059 454.704 70.2179 454.416 68.9059 454.416C68.1059 454.416 67.3699 454.64 66.6979 455.088C66.0259 455.536 65.6899 456.16 65.6899 456.96C65.6899 457.76 65.9939 458.416 66.6019 458.928C67.2419 459.408 68.3939 459.84 70.0579 460.224C72.8739 460.896 74.8739 461.776 76.0579 462.864C77.2419 463.92 77.8339 465.328 77.8339 467.088C77.8339 468.624 77.4339 469.952 76.6339 471.072C75.8659 472.16 74.8419 473.008 73.5619 473.616C72.3139 474.192 70.9539 474.48 69.4819 474.48ZM93.0383 474.48C90.6703 474.48 88.5743 473.984 86.7503 472.992C84.9583 471.968 83.5663 470.544 82.5742 468.72C81.5822 466.896 81.0863 464.768 81.0863 462.336C81.0863 459.872 81.5822 457.728 82.5742 455.904C83.5663 454.08 84.9583 452.656 86.7503 451.632C88.5743 450.608 90.6703 450.096 93.0383 450.096C95.4383 450.096 97.5343 450.608 99.3263 451.632C101.118 452.656 102.51 454.08 103.502 455.904C104.526 457.728 105.038 459.872 105.038 462.336C105.038 464.768 104.526 466.896 103.502 468.72C102.51 470.544 101.118 471.968 99.3263 472.992C97.5343 473.984 95.4383 474.48 93.0383 474.48ZM93.0383 469.872C95.1823 469.872 96.8943 469.184 98.1743 467.808C99.4863 466.4 100.142 464.576 100.142 462.336C100.142 460.064 99.4863 458.224 98.1743 456.816C96.8943 455.408 95.1823 454.704 93.0383 454.704C90.9263 454.704 89.2143 455.408 87.9023 456.816C86.6223 458.192 85.9823 460.016 85.9823 462.288C85.9823 464.56 86.6223 466.4 87.9023 467.808C89.2143 469.184 90.9263 469.872 93.0383 469.872ZM131.635 474.48C129.491 474.48 127.603 473.968 125.971 472.944C124.339 471.92 123.075 470.496 122.179 468.672C121.283 466.816 120.835 464.672 120.835 462.24C120.835 459.808 121.283 457.68 122.179 455.856C123.075 454.032 124.339 452.624 125.971 451.632C127.603 450.608 129.491 450.096 131.635 450.096C133.747 450.096 135.587 450.608 137.155 451.632C138.723 452.624 139.939 454.032 140.803 455.856C141.699 457.68 142.147 459.808 142.147 462.24C142.147 464.672 141.699 466.816 140.803 468.672C139.939 470.496 138.723 471.92 137.155 472.944C135.587 473.968 133.747 474.48 131.635 474.48ZM132.355 470.352C134.339 470.352 135.923 469.616 137.107 468.144C138.323 466.672 138.931 464.72 138.931 462.288C138.931 459.856 138.323 457.904 137.107 456.432C135.923 454.96 134.339 454.224 132.355 454.224C130.371 454.224 128.771 454.96 127.555 456.432C126.339 457.904 125.731 459.84 125.731 462.24C125.731 464.672 126.339 466.64 127.555 468.144C128.771 469.616 130.371 470.352 132.355 470.352ZM139.843 474L138.691 469.296H139.171V455.952H138.691V441.312H143.491V474H139.843ZM159.448 474.48C157.176 474.48 155.176 473.984 153.448 472.992C151.72 471.968 150.376 470.544 149.416 468.72C148.456 466.896 147.976 464.768 147.976 462.336C147.976 459.872 148.456 457.728 149.416 455.904C150.376 454.08 151.72 452.656 153.448 451.632C155.176 450.608 157.176 450.096 159.448 450.096C161.752 450.096 163.768 450.608 165.496 451.632C167.224 452.656 168.568 454.08 169.528 455.904C170.488 457.728 170.968 459.872 170.968 462.336C170.968 462.56 170.952 462.8 170.92 463.056C170.92 463.28 170.904 463.488 170.872 463.68H152.536V459.552H167.416L166.072 462.336C166.072 459.904 165.528 457.904 164.44 456.336C163.352 454.768 161.688 453.984 159.448 453.984C157.464 453.984 155.88 454.624 154.696 455.904C153.512 457.152 152.92 458.8 152.92 460.848V463.344C152.92 465.488 153.496 467.2 154.648 468.48C155.8 469.728 157.4 470.352 159.448 470.352C161.336 470.352 162.792 469.952 163.816 469.152C164.84 468.352 165.736 467.36 166.504 466.176L170.104 468.432C169.016 470.448 167.608 471.968 165.88 472.992C164.184 473.984 162.04 474.48 159.448 474.48ZM197.307 474.48C195.163 474.48 193.275 473.968 191.643 472.944C190.011 471.92 188.747 470.496 187.851 468.672C186.955 466.816 186.507 464.672 186.507 462.24C186.507 459.808 186.955 457.68 187.851 455.856C188.747 454.032 190.011 452.624 191.643 451.632C193.275 450.608 195.163 450.096 197.307 450.096C199.419 450.096 201.259 450.608 202.827 451.632C204.395 452.624 205.611 454.032 206.475 455.856C207.371 457.68 207.819 459.808 207.819 462.24C207.819 464.672 207.371 466.816 206.475 468.672C205.611 470.496 204.395 471.92 202.827 472.944C201.259 473.968 199.419 474.48 197.307 474.48ZM198.027 470.352C200.011 470.352 201.595 469.616 202.779 468.144C203.995 466.672 204.603 464.72 204.603 462.288C204.603 459.856 203.995 457.904 202.779 456.432C201.595 454.96 200.011 454.224 198.027 454.224C196.043 454.224 194.443 454.96 193.227 456.432C192.011 457.904 191.403 459.84 191.403 462.24C191.403 464.672 192.011 466.64 193.227 468.144C194.443 469.616 196.043 470.352 198.027 470.352ZM205.515 474L204.363 469.296H204.843V455.952H204.363V441.312H209.163V474H205.515ZM222.48 474.48C220.72 474.48 219.328 474.208 218.304 473.664C217.28 473.088 216.528 472.336 216.048 471.408C215.568 470.448 215.248 469.376 215.088 468.192C214.96 467.008 214.896 465.792 214.896 464.544V450.576H219.696V465.552C219.696 467.216 220.064 468.336 220.8 468.912C221.568 469.488 222.464 469.776 223.488 469.776C224.544 469.776 225.584 469.568 226.608 469.152C227.664 468.736 228.608 468.176 229.44 467.472C230.304 466.736 230.944 465.952 231.36 465.12V467.808H230.592V450.576H235.392V474H231.744L230.736 469.872L231.936 469.728C231.104 470.72 230.176 471.584 229.152 472.32C228.128 473.024 227.056 473.568 225.936 473.952C224.816 474.304 223.664 474.48 222.48 474.48ZM261.973 450.576L253.141 474H248.581L239.269 450.576H244.597L251.125 468.768H250.501L256.741 450.576H261.973ZM270.749 474H265.949V450.576H270.749V474ZM265.229 443.376C265.229 442.448 265.501 441.696 266.045 441.12C266.621 440.512 267.389 440.208 268.349 440.208C269.277 440.208 270.029 440.512 270.605 441.12C271.181 441.696 271.469 442.448 271.469 443.376C271.469 444.272 271.181 445.024 270.605 445.632C270.029 446.208 269.277 446.496 268.349 446.496C267.389 446.496 266.621 446.208 266.045 445.632C265.501 445.024 265.229 444.272 265.229 443.376ZM286.37 474.48C284.226 474.48 282.338 473.968 280.706 472.944C279.074 471.92 277.81 470.496 276.914 468.672C276.018 466.816 275.57 464.672 275.57 462.24C275.57 459.808 276.018 457.68 276.914 455.856C277.81 454.032 279.074 452.624 280.706 451.632C282.338 450.608 284.226 450.096 286.37 450.096C288.482 450.096 290.322 450.608 291.89 451.632C293.458 452.624 294.674 454.032 295.538 455.856C296.434 457.68 296.882 459.808 296.882 462.24C296.882 464.672 296.434 466.816 295.538 468.672C294.674 470.496 293.458 471.92 291.89 472.944C290.322 473.968 288.482 474.48 286.37 474.48ZM287.09 470.352C289.074 470.352 290.658 469.616 291.842 468.144C293.058 466.672 293.666 464.72 293.666 462.288C293.666 459.856 293.058 457.904 291.842 456.432C290.658 454.96 289.074 454.224 287.09 454.224C285.106 454.224 283.506 454.96 282.29 456.432C281.074 457.904 280.466 459.84 280.466 462.24C280.466 464.672 281.074 466.64 282.29 468.144C283.506 469.616 285.106 470.352 287.09 470.352ZM294.578 474L293.426 469.296H293.906V455.952H293.426V441.312H298.226V474H294.578ZM311.681 474.672C309.857 474.672 308.289 474.352 306.977 473.712C305.665 473.072 304.657 472.16 303.953 470.976C303.281 469.76 302.945 468.32 302.945 466.656C302.945 465.12 303.297 463.76 304.001 462.576C304.705 461.36 305.713 460.4 307.025 459.696C308.337 458.992 309.889 458.64 311.681 458.64C313.921 458.64 315.713 459.152 317.057 460.176C318.433 461.168 319.393 462.544 319.937 464.304H317.249V458.304C317.249 457.312 316.913 456.4 316.241 455.568C315.569 454.736 314.385 454.32 312.689 454.32C311.793 454.32 310.801 454.432 309.713 454.656C308.657 454.848 307.553 455.2 306.401 455.712L304.961 452.016C306.273 451.376 307.633 450.896 309.041 450.576C310.449 450.256 311.825 450.096 313.169 450.096C315.185 450.096 316.849 450.464 318.161 451.2C319.473 451.936 320.449 452.928 321.089 454.176C321.729 455.392 322.049 456.768 322.049 458.304V474H318.593L317.393 469.728L319.937 469.008C319.361 470.896 318.337 472.32 316.865 473.28C315.393 474.208 313.665 474.672 311.681 474.672ZM312.545 470.4C313.953 470.4 315.089 470.08 315.953 469.44C316.817 468.768 317.249 467.84 317.249 466.656C317.249 465.44 316.817 464.512 315.953 463.872C315.089 463.232 313.953 462.912 312.545 462.912C311.137 462.912 310.001 463.232 309.137 463.872C308.273 464.512 307.841 465.44 307.841 466.656C307.841 467.84 308.273 468.768 309.137 469.44C310.001 470.08 311.137 470.4 312.545 470.4ZM335.263 474.48C333.631 474.48 332.015 474.096 330.415 473.328C328.847 472.56 327.551 471.248 326.527 469.392L330.175 466.992C331.071 468.176 331.919 469.04 332.719 469.584C333.519 470.096 334.559 470.352 335.839 470.352C336.863 470.352 337.647 470.096 338.191 469.584C338.767 469.04 339.055 468.384 339.055 467.616C339.055 467.104 338.911 466.656 338.623 466.272C338.367 465.888 337.903 465.536 337.231 465.216C336.559 464.864 335.599 464.528 334.351 464.208C332.047 463.6 330.271 462.8 329.023 461.808C327.775 460.816 327.151 459.248 327.151 457.104C327.151 455.824 327.471 454.656 328.111 453.6C328.751 452.544 329.679 451.696 330.895 451.056C332.111 450.416 333.551 450.096 335.215 450.096C337.199 450.096 338.895 450.512 340.303 451.344C341.711 452.144 342.815 453.104 343.615 454.224L339.919 456.96C339.471 456.384 338.815 455.824 337.951 455.28C337.087 454.704 335.999 454.416 334.687 454.416C333.887 454.416 333.151 454.64 332.479 455.088C331.807 455.536 331.471 456.16 331.471 456.96C331.471 457.76 331.775 458.416 332.383 458.928C333.023 459.408 334.175 459.84 335.839 460.224C338.655 460.896 340.655 461.776 341.839 462.864C343.023 463.92 343.615 465.328 343.615 467.088C343.615 468.624 343.215 469.952 342.415 471.072C341.647 472.16 340.623 473.008 339.343 473.616C338.095 474.192 336.735 474.48 335.263 474.48ZM60.5304 532.48C58.1624 532.48 56.0664 531.984 54.2424 530.992C52.4504 529.968 51.0584 528.544 50.0664 526.72C49.0744 524.896 48.5784 522.768 48.5784 520.336C48.5784 517.872 49.0744 515.728 50.0664 513.904C51.0584 512.08 52.4504 510.656 54.2424 509.632C56.0664 508.608 58.1624 508.096 60.5304 508.096C62.9304 508.096 65.0264 508.608 66.8184 509.632C68.6104 510.656 70.0024 512.08 70.9944 513.904C72.0184 515.728 72.5304 517.872 72.5304 520.336C72.5304 522.768 72.0184 524.896 70.9944 526.72C70.0024 528.544 68.6104 529.968 66.8184 530.992C65.0264 531.984 62.9304 532.48 60.5304 532.48ZM60.5304 527.872C62.6744 527.872 64.3864 527.184 65.6664 525.808C66.9784 524.4 67.6344 522.576 67.6344 520.336C67.6344 518.064 66.9784 516.224 65.6664 514.816C64.3864 513.408 62.6744 512.704 60.5304 512.704C58.4184 512.704 56.7064 513.408 55.3944 514.816C54.1144 516.192 53.4744 518.016 53.4744 520.288C53.4744 522.56 54.1144 524.4 55.3944 525.808C56.7064 527.184 58.4184 527.872 60.5304 527.872ZM84.2218 532.48C82.4618 532.48 81.0698 532.208 80.0458 531.664C79.0218 531.088 78.2698 530.336 77.7898 529.408C77.3098 528.448 76.9898 527.376 76.8298 526.192C76.7018 525.008 76.6378 523.792 76.6378 522.544V508.576H81.4378V523.552C81.4378 525.216 81.8058 526.336 82.5418 526.912C83.3098 527.488 84.2058 527.776 85.2298 527.776C86.2858 527.776 87.3258 527.568 88.3498 527.152C89.4058 526.736 90.3498 526.176 91.1818 525.472C92.0458 524.736 92.6858 523.952 93.1018 523.12V525.808H92.3338V508.576H97.1338V532H93.4858L92.4778 527.872L93.6778 527.728C92.8458 528.72 91.9178 529.584 90.8938 530.32C89.8698 531.024 88.7978 531.568 87.6778 531.952C86.5578 532.304 85.4058 532.48 84.2218 532.48ZM127.592 532.48C125.48 532.48 123.64 531.984 122.072 530.992C120.504 529.968 119.272 528.544 118.376 526.72C117.512 524.896 117.08 522.768 117.08 520.336C117.08 517.872 117.512 515.728 118.376 513.904C119.272 512.08 120.504 510.656 122.072 509.632C123.64 508.608 125.48 508.096 127.592 508.096C129.768 508.096 131.656 508.608 133.256 509.632C134.888 510.656 136.152 512.08 137.048 513.904C137.944 515.728 138.392 517.872 138.392 520.336C138.392 522.768 137.944 524.896 137.048 526.72C136.152 528.544 134.888 529.968 133.256 530.992C131.656 531.984 129.768 532.48 127.592 532.48ZM115.736 541.12V508.576H119.384L120.536 513.28H120.056V526.624H120.536V541.12H115.736ZM126.872 528.352C128.856 528.352 130.456 527.616 131.672 526.144C132.888 524.672 133.496 522.736 133.496 520.336C133.496 517.904 132.888 515.952 131.672 514.48C130.456 512.976 128.856 512.224 126.872 512.224C124.92 512.224 123.336 512.96 122.12 514.432C120.904 515.904 120.296 517.856 120.296 520.288C120.296 522.72 120.904 524.672 122.12 526.144C123.336 527.616 124.92 528.352 126.872 528.352ZM149.704 532.672C147.88 532.672 146.312 532.352 145 531.712C143.688 531.072 142.68 530.16 141.976 528.976C141.304 527.76 140.968 526.32 140.968 524.656C140.968 523.12 141.32 521.76 142.024 520.576C142.728 519.36 143.736 518.4 145.048 517.696C146.36 516.992 147.912 516.64 149.704 516.64C151.944 516.64 153.736 517.152 155.08 518.176C156.456 519.168 157.416 520.544 157.96 522.304H155.272V516.304C155.272 515.312 154.936 514.4 154.264 513.568C153.592 512.736 152.408 512.32 150.712 512.32C149.816 512.32 148.824 512.432 147.736 512.656C146.68 512.848 145.576 513.2 144.424 513.712L142.984 510.016C144.296 509.376 145.656 508.896 147.064 508.576C148.472 508.256 149.848 508.096 151.192 508.096C153.208 508.096 154.872 508.464 156.184 509.2C157.496 509.936 158.472 510.928 159.112 512.176C159.752 513.392 160.072 514.768 160.072 516.304V532H156.616L155.416 527.728L157.96 527.008C157.384 528.896 156.36 530.32 154.888 531.28C153.416 532.208 151.688 532.672 149.704 532.672ZM150.568 528.4C151.976 528.4 153.112 528.08 153.976 527.44C154.84 526.768 155.272 525.84 155.272 524.656C155.272 523.44 154.84 522.512 153.976 521.872C153.112 521.232 151.976 520.912 150.568 520.912C149.16 520.912 148.024 521.232 147.16 521.872C146.296 522.512 145.864 523.44 145.864 524.656C145.864 525.84 146.296 526.768 147.16 527.44C148.024 528.08 149.16 528.4 150.568 528.4ZM169.681 508.576L170.833 514.912V532H166.033V508.576H169.681ZM170.113 516.88L168.961 516.352V512.848L169.393 512.32C169.713 511.744 170.209 511.136 170.881 510.496C171.585 509.824 172.401 509.264 173.329 508.816C174.257 508.336 175.201 508.096 176.161 508.096C176.641 508.096 177.089 508.128 177.505 508.192C177.953 508.256 178.289 508.368 178.513 508.528V512.848H177.025C174.849 512.848 173.265 513.184 172.273 513.856C171.281 514.496 170.561 515.504 170.113 516.88ZM188.423 532.672C186.599 532.672 185.031 532.352 183.719 531.712C182.407 531.072 181.399 530.16 180.695 528.976C180.023 527.76 179.687 526.32 179.687 524.656C179.687 523.12 180.039 521.76 180.743 520.576C181.447 519.36 182.455 518.4 183.767 517.696C185.079 516.992 186.631 516.64 188.423 516.64C190.663 516.64 192.455 517.152 193.799 518.176C195.175 519.168 196.135 520.544 196.679 522.304H193.991V516.304C193.991 515.312 193.655 514.4 192.983 513.568C192.311 512.736 191.127 512.32 189.431 512.32C188.535 512.32 187.543 512.432 186.455 512.656C185.399 512.848 184.295 513.2 183.143 513.712L181.703 510.016C183.015 509.376 184.375 508.896 185.783 508.576C187.191 508.256 188.567 508.096 189.911 508.096C191.927 508.096 193.591 508.464 194.903 509.2C196.215 509.936 197.191 510.928 197.831 512.176C198.471 513.392 198.791 514.768 198.791 516.304V532H195.335L194.135 527.728L196.679 527.008C196.103 528.896 195.079 530.32 193.607 531.28C192.135 532.208 190.407 532.672 188.423 532.672ZM189.287 528.4C190.695 528.4 191.831 528.08 192.695 527.44C193.559 526.768 193.991 525.84 193.991 524.656C193.991 523.44 193.559 522.512 192.695 521.872C191.831 521.232 190.695 520.912 189.287 520.912C187.879 520.912 186.743 521.232 185.879 521.872C185.015 522.512 184.583 523.44 184.583 524.656C184.583 525.84 185.015 526.768 185.879 527.44C186.743 528.08 187.879 528.4 189.287 528.4ZM217.22 532V508.576H220.868L221.876 512.704L220.676 512.848C221.54 511.824 222.452 510.96 223.412 510.256C224.372 509.552 225.396 509.024 226.484 508.672C227.572 508.288 228.708 508.096 229.892 508.096C231.556 508.096 232.868 508.384 233.828 508.96C234.788 509.504 235.492 510.256 235.94 511.216C236.388 512.144 236.676 513.2 236.804 514.384C236.932 515.568 236.996 516.784 236.996 518.032V532H232.196V517.024C232.196 515.36 231.812 514.24 231.044 513.664C230.308 513.088 229.428 512.8 228.404 512.8C226.932 512.8 225.524 513.264 224.18 514.192C222.836 515.088 221.86 516.176 221.252 517.456V514.768H222.02V532H217.22ZM247.172 532V517.024C247.172 515.36 246.788 514.24 246.02 513.664C245.284 513.088 244.404 512.8 243.38 512.8C241.908 512.8 240.5 513.264 239.156 514.192C237.812 515.088 236.836 516.176 236.228 517.456L235.652 512.848C236.516 511.824 237.428 510.96 238.388 510.256C239.348 509.552 240.372 509.024 241.46 508.672C242.548 508.288 243.684 508.096 244.868 508.096C246.532 508.096 247.844 508.384 248.804 508.96C249.764 509.504 250.468 510.256 250.916 511.216C251.364 512.144 251.652 513.2 251.78 514.384C251.908 515.568 251.972 516.784 251.972 518.032V532H247.172ZM264.97 532.672C263.146 532.672 261.578 532.352 260.266 531.712C258.954 531.072 257.946 530.16 257.242 528.976C256.57 527.76 256.234 526.32 256.234 524.656C256.234 523.12 256.586 521.76 257.29 520.576C257.994 519.36 259.002 518.4 260.314 517.696C261.626 516.992 263.178 516.64 264.97 516.64C267.21 516.64 269.002 517.152 270.346 518.176C271.722 519.168 272.682 520.544 273.226 522.304H270.538V516.304C270.538 515.312 270.202 514.4 269.53 513.568C268.858 512.736 267.674 512.32 265.978 512.32C265.082 512.32 264.09 512.432 263.002 512.656C261.946 512.848 260.842 513.2 259.69 513.712L258.25 510.016C259.562 509.376 260.922 508.896 262.33 508.576C263.738 508.256 265.114 508.096 266.458 508.096C268.474 508.096 270.138 508.464 271.45 509.2C272.762 509.936 273.738 510.928 274.378 512.176C275.018 513.392 275.338 514.768 275.338 516.304V532H271.882L270.682 527.728L273.226 527.008C272.65 528.896 271.626 530.32 270.154 531.28C268.682 532.208 266.954 532.672 264.97 532.672ZM265.834 528.4C267.242 528.4 268.378 528.08 269.242 527.44C270.106 526.768 270.538 525.84 270.538 524.656C270.538 523.44 270.106 522.512 269.242 521.872C268.378 521.232 267.242 520.912 265.834 520.912C264.426 520.912 263.29 521.232 262.426 521.872C261.562 522.512 261.13 523.44 261.13 524.656C261.13 525.84 261.562 526.768 262.426 527.44C263.29 528.08 264.426 528.4 265.834 528.4ZM286.195 532H281.395V508.576H286.195V532ZM280.675 501.376C280.675 500.448 280.947 499.696 281.491 499.12C282.067 498.512 282.835 498.208 283.795 498.208C284.723 498.208 285.475 498.512 286.051 499.12C286.627 499.696 286.915 500.448 286.915 501.376C286.915 502.272 286.627 503.024 286.051 503.632C285.475 504.208 284.723 504.496 283.795 504.496C282.835 504.496 282.067 504.208 281.491 503.632C280.947 503.024 280.675 502.272 280.675 501.376ZM299.943 532.48C298.311 532.48 296.695 532.096 295.095 531.328C293.527 530.56 292.231 529.248 291.207 527.392L294.855 524.992C295.751 526.176 296.599 527.04 297.399 527.584C298.199 528.096 299.239 528.352 300.519 528.352C301.543 528.352 302.327 528.096 302.871 527.584C303.447 527.04 303.735 526.384 303.735 525.616C303.735 525.104 303.591 524.656 303.303 524.272C303.047 523.888 302.583 523.536 301.911 523.216C301.239 522.864 300.279 522.528 299.031 522.208C296.727 521.6 294.951 520.8 293.703 519.808C292.455 518.816 291.831 517.248 291.831 515.104C291.831 513.824 292.151 512.656 292.791 511.6C293.431 510.544 294.359 509.696 295.575 509.056C296.791 508.416 298.231 508.096 299.895 508.096C301.879 508.096 303.575 508.512 304.983 509.344C306.391 510.144 307.495 511.104 308.295 512.224L304.599 514.96C304.151 514.384 303.495 513.824 302.631 513.28C301.767 512.704 300.679 512.416 299.367 512.416C298.567 512.416 297.831 512.64 297.159 513.088C296.487 513.536 296.151 514.16 296.151 514.96C296.151 515.76 296.455 516.416 297.063 516.928C297.703 517.408 298.855 517.84 300.519 518.224C303.335 518.896 305.335 519.776 306.519 520.864C307.703 521.92 308.295 523.328 308.295 525.088C308.295 526.624 307.895 527.952 307.095 529.072C306.327 530.16 305.303 531.008 304.023 531.616C302.775 532.192 301.415 532.48 299.943 532.48ZM51.843 590H47.043V566.576H51.843V590ZM46.323 559.376C46.323 558.448 46.595 557.696 47.139 557.12C47.715 556.512 48.483 556.208 49.443 556.208C50.371 556.208 51.123 556.512 51.699 557.12C52.275 557.696 52.563 558.448 52.563 559.376C52.563 560.272 52.275 561.024 51.699 561.632C51.123 562.208 50.371 562.496 49.443 562.496C48.483 562.496 47.715 562.208 47.139 561.632C46.595 561.024 46.323 560.272 46.323 559.376ZM71.4953 566.096C73.1593 566.096 74.4713 566.384 75.4313 566.96C76.3913 567.504 77.0953 568.256 77.5433 569.216C77.9913 570.144 78.2793 571.2 78.4073 572.384C78.5353 573.568 78.5993 574.784 78.5993 576.032V590H73.7993V575.024C73.7993 573.36 73.4153 572.24 72.6473 571.664C71.9113 571.088 71.0313 570.8 70.0073 570.8C68.9833 570.8 67.9433 571.008 66.8873 571.424C65.8313 571.84 64.8873 572.4 64.0553 573.104C63.2233 573.808 62.5833 574.592 62.1353 575.456V572.768H62.9033V590H58.1033V566.576H61.7513L62.7593 570.704L61.5593 570.848C62.4553 569.824 63.4313 568.96 64.4873 568.256C65.5433 567.552 66.6633 567.024 67.8473 566.672C69.0313 566.288 70.2473 566.096 71.4953 566.096ZM86.0824 590V564.272C86.0824 562.576 86.3544 561.184 86.8984 560.096C87.4424 559.008 88.2104 558.208 89.2024 557.696C90.1944 557.152 91.3784 556.88 92.7544 556.88C93.3944 556.88 93.9704 556.928 94.4824 557.024C94.9944 557.12 95.4584 557.232 95.8744 557.36V561.824C95.5224 561.76 95.1704 561.712 94.8184 561.68C94.4984 561.616 94.1144 561.584 93.6664 561.584C92.9624 561.584 92.3224 561.824 91.7464 562.304C91.1704 562.752 90.8824 563.536 90.8824 564.656V590H86.0824ZM95.3944 570.992H82.4824V566.576H95.3944V570.992ZM109.726 590.48C107.358 590.48 105.262 589.984 103.438 588.992C101.646 587.968 100.254 586.544 99.2617 584.72C98.2697 582.896 97.7738 580.768 97.7738 578.336C97.7738 575.872 98.2697 573.728 99.2617 571.904C100.254 570.08 101.646 568.656 103.438 567.632C105.262 566.608 107.358 566.096 109.726 566.096C112.126 566.096 114.222 566.608 116.014 567.632C117.806 568.656 119.198 570.08 120.19 571.904C121.214 573.728 121.726 575.872 121.726 578.336C121.726 580.768 121.214 582.896 120.19 584.72C119.198 586.544 117.806 587.968 116.014 588.992C114.222 589.984 112.126 590.48 109.726 590.48ZM109.726 585.872C111.87 585.872 113.582 585.184 114.862 583.808C116.174 582.4 116.83 580.576 116.83 578.336C116.83 576.064 116.174 574.224 114.862 572.816C113.582 571.408 111.87 570.704 109.726 570.704C107.614 570.704 105.902 571.408 104.59 572.816C103.31 574.192 102.67 576.016 102.67 578.288C102.67 580.56 103.31 582.4 104.59 583.808C105.902 585.184 107.614 585.872 109.726 585.872ZM129.908 566.576L131.06 572.912V590H126.26V566.576H129.908ZM130.34 574.88L129.188 574.352V570.848L129.62 570.32C129.94 569.744 130.436 569.136 131.108 568.496C131.812 567.824 132.628 567.264 133.556 566.816C134.484 566.336 135.428 566.096 136.388 566.096C136.868 566.096 137.316 566.128 137.732 566.192C138.18 566.256 138.516 566.368 138.74 566.528V570.848H137.252C135.076 570.848 133.492 571.184 132.5 571.856C131.508 572.496 130.788 573.504 130.34 574.88ZM142.806 590V566.576H146.454L147.462 570.704L146.262 570.848C147.126 569.824 148.038 568.96 148.998 568.256C149.958 567.552 150.982 567.024 152.07 566.672C153.158 566.288 154.294 566.096 155.478 566.096C157.142 566.096 158.454 566.384 159.414 566.96C160.374 567.504 161.078 568.256 161.526 569.216C161.974 570.144 162.262 571.2 162.39 572.384C162.518 573.568 162.582 574.784 162.582 576.032V590H157.782V575.024C157.782 573.36 157.398 572.24 156.63 571.664C155.894 571.088 155.014 570.8 153.99 570.8C152.518 570.8 151.11 571.264 149.766 572.192C148.422 573.088 147.446 574.176 146.838 575.456V572.768H147.606V590H142.806ZM172.758 590V575.024C172.758 573.36 172.374 572.24 171.606 571.664C170.87 571.088 169.99 570.8 168.966 570.8C167.494 570.8 166.086 571.264 164.742 572.192C163.398 573.088 162.422 574.176 161.814 575.456L161.238 570.848C162.102 569.824 163.014 568.96 163.974 568.256C164.934 567.552 165.958 567.024 167.046 566.672C168.134 566.288 169.27 566.096 170.454 566.096C172.118 566.096 173.43 566.384 174.39 566.96C175.35 567.504 176.054 568.256 176.502 569.216C176.95 570.144 177.238 571.2 177.366 572.384C177.494 573.568 177.558 574.784 177.558 576.032V590H172.758ZM190.556 590.672C188.732 590.672 187.164 590.352 185.852 589.712C184.54 589.072 183.532 588.16 182.828 586.976C182.156 585.76 181.82 584.32 181.82 582.656C181.82 581.12 182.172 579.76 182.876 578.576C183.58 577.36 184.588 576.4 185.9 575.696C187.212 574.992 188.764 574.64 190.556 574.64C192.796 574.64 194.588 575.152 195.932 576.176C197.308 577.168 198.268 578.544 198.812 580.304H196.124V574.304C196.124 573.312 195.788 572.4 195.116 571.568C194.444 570.736 193.26 570.32 191.564 570.32C190.668 570.32 189.676 570.432 188.588 570.656C187.532 570.848 186.428 571.2 185.276 571.712L183.836 568.016C185.148 567.376 186.508 566.896 187.916 566.576C189.324 566.256 190.7 566.096 192.044 566.096C194.06 566.096 195.724 566.464 197.036 567.2C198.348 567.936 199.324 568.928 199.964 570.176C200.604 571.392 200.924 572.768 200.924 574.304V590H197.468L196.268 585.728L198.812 585.008C198.236 586.896 197.212 588.32 195.74 589.28C194.268 590.208 192.54 590.672 190.556 590.672ZM191.42 586.4C192.828 586.4 193.964 586.08 194.828 585.44C195.692 584.768 196.124 583.84 196.124 582.656C196.124 581.44 195.692 580.512 194.828 579.872C193.964 579.232 192.828 578.912 191.42 578.912C190.012 578.912 188.876 579.232 188.012 579.872C187.148 580.512 186.716 581.44 186.716 582.656C186.716 583.84 187.148 584.768 188.012 585.44C188.876 586.08 190.012 586.4 191.42 586.4ZM217.205 590.48C214.805 590.48 212.725 589.968 210.965 588.944C209.205 587.888 207.845 586.448 206.885 584.624C205.925 582.8 205.445 580.688 205.445 578.288C205.445 575.888 205.925 573.776 206.885 571.952C207.845 570.128 209.205 568.704 210.965 567.68C212.725 566.624 214.805 566.096 217.205 566.096C219.477 566.096 221.541 566.72 223.397 567.968C225.253 569.184 226.597 570.816 227.429 572.864L222.869 574.784C222.357 573.44 221.589 572.432 220.565 571.76C219.541 571.056 218.373 570.704 217.061 570.704C215.141 570.704 213.541 571.376 212.261 572.72C210.981 574.032 210.341 575.888 210.341 578.288C210.341 580.688 210.981 582.56 212.261 583.904C213.541 585.216 215.141 585.872 217.061 585.872C218.373 585.872 219.541 585.536 220.565 584.864C221.589 584.16 222.357 583.136 222.869 581.792L227.429 583.712C226.565 585.76 225.205 587.408 223.349 588.656C221.525 589.872 219.477 590.48 217.205 590.48ZM216.773 599.744C215.717 599.744 214.773 599.616 213.941 599.36C213.109 599.104 212.373 598.768 211.733 598.352L213.029 596.048C213.445 596.304 213.941 596.528 214.517 596.72C215.093 596.944 215.717 597.056 216.389 597.056C217.221 597.056 217.829 596.912 218.213 596.624C218.597 596.336 218.789 595.968 218.789 595.52C218.789 595.136 218.597 594.816 218.213 594.56C217.861 594.336 217.189 594.224 216.197 594.224H213.893L214.805 590H217.781L217.157 593.312L216.245 591.824C218.165 591.824 219.557 592.144 220.421 592.784C221.317 593.424 221.765 594.32 221.765 595.472C221.765 596.816 221.333 597.856 220.469 598.592C219.605 599.36 218.373 599.744 216.773 599.744ZM241.632 590.48C239.264 590.48 237.168 589.984 235.344 588.992C233.552 587.968 232.16 586.544 231.168 584.72C230.176 582.896 229.68 580.768 229.68 578.336C229.68 575.872 230.176 573.728 231.168 571.904C232.16 570.08 233.552 568.656 235.344 567.632C237.168 566.608 239.264 566.096 241.632 566.096C244.032 566.096 246.128 566.608 247.92 567.632C249.712 568.656 251.104 570.08 252.096 571.904C253.12 573.728 253.632 575.872 253.632 578.336C253.632 580.768 253.12 582.896 252.096 584.72C251.104 586.544 249.712 587.968 247.92 588.992C246.128 589.984 244.032 590.48 241.632 590.48ZM241.632 585.872C243.776 585.872 245.488 585.184 246.768 583.808C248.08 582.4 248.736 580.576 248.736 578.336C248.736 576.064 248.08 574.224 246.768 572.816C245.488 571.408 243.776 570.704 241.632 570.704C239.52 570.704 237.808 571.408 236.496 572.816C235.216 574.192 234.576 576.016 234.576 578.288C234.576 580.56 235.216 582.4 236.496 583.808C237.808 585.184 239.52 585.872 241.632 585.872ZM244.752 562.4C243.568 562.4 242.336 561.952 241.056 561.056C240.512 560.672 240.064 560.4 239.712 560.24C239.36 560.048 238.992 559.952 238.608 559.952C237.648 559.952 236.848 560.672 236.208 562.112L232.992 560.528C233.632 559.184 234.384 558.144 235.248 557.408C236.112 556.672 237.168 556.304 238.416 556.304C239.184 556.304 239.904 556.432 240.576 556.688C241.28 556.912 242 557.296 242.736 557.84C243.12 558.096 243.472 558.32 243.792 558.512C244.144 558.672 244.48 558.752 244.8 558.752C245.344 558.752 245.76 558.576 246.048 558.224C246.336 557.872 246.672 557.232 247.056 556.304L250.272 557.888C249.76 559.264 249.072 560.368 248.208 561.2C247.344 562 246.192 562.4 244.752 562.4ZM267.495 590.48C265.223 590.48 263.223 589.984 261.495 588.992C259.767 587.968 258.423 586.544 257.463 584.72C256.503 582.896 256.023 580.768 256.023 578.336C256.023 575.872 256.503 573.728 257.463 571.904C258.423 570.08 259.767 568.656 261.495 567.632C263.223 566.608 265.223 566.096 267.495 566.096C269.799 566.096 271.815 566.608 273.543 567.632C275.271 568.656 276.615 570.08 277.575 571.904C278.535 573.728 279.015 575.872 279.015 578.336C279.015 578.56 278.999 578.8 278.967 579.056C278.967 579.28 278.951 579.488 278.919 579.68H260.583V575.552H275.463L274.119 578.336C274.119 575.904 273.575 573.904 272.487 572.336C271.399 570.768 269.735 569.984 267.495 569.984C265.511 569.984 263.927 570.624 262.743 571.904C261.559 573.152 260.967 574.8 260.967 576.848V579.344C260.967 581.488 261.543 583.2 262.695 584.48C263.847 585.728 265.447 586.352 267.495 586.352C269.383 586.352 270.839 585.952 271.863 585.152C272.887 584.352 273.783 583.36 274.551 582.176L278.151 584.432C277.063 586.448 275.655 587.968 273.927 588.992C272.231 589.984 270.087 590.48 267.495 590.48ZM290.544 590.48C288.912 590.48 287.296 590.096 285.696 589.328C284.128 588.56 282.832 587.248 281.808 585.392L285.456 582.992C286.352 584.176 287.2 585.04 288 585.584C288.8 586.096 289.84 586.352 291.12 586.352C292.144 586.352 292.928 586.096 293.472 585.584C294.048 585.04 294.336 584.384 294.336 583.616C294.336 583.104 294.192 582.656 293.904 582.272C293.648 581.888 293.184 581.536 292.512 581.216C291.84 580.864 290.88 580.528 289.632 580.208C287.328 579.6 285.552 578.8 284.304 577.808C283.056 576.816 282.432 575.248 282.432 573.104C282.432 571.824 282.752 570.656 283.392 569.6C284.032 568.544 284.96 567.696 286.176 567.056C287.392 566.416 288.832 566.096 290.496 566.096C292.48 566.096 294.176 566.512 295.584 567.344C296.992 568.144 298.096 569.104 298.896 570.224L295.2 572.96C294.752 572.384 294.096 571.824 293.232 571.28C292.368 570.704 291.28 570.416 289.968 570.416C289.168 570.416 288.432 570.64 287.76 571.088C287.088 571.536 286.752 572.16 286.752 572.96C286.752 573.76 287.056 574.416 287.664 574.928C288.304 575.408 289.456 575.84 291.12 576.224C293.936 576.896 295.936 577.776 297.12 578.864C298.304 579.92 298.896 581.328 298.896 583.088C298.896 584.624 298.496 585.952 297.696 587.072C296.928 588.16 295.904 589.008 294.624 589.616C293.376 590.192 292.016 590.48 290.544 590.48ZM306.666 590.24C305.994 590.24 305.37 590.064 304.794 589.712C304.218 589.36 303.754 588.896 303.402 588.32C303.05 587.744 302.874 587.12 302.874 586.448C302.874 585.744 303.05 585.12 303.402 584.576C303.754 584 304.218 583.536 304.794 583.184C305.37 582.832 305.994 582.656 306.666 582.656C307.37 582.656 308.01 582.832 308.586 583.184C309.162 583.536 309.626 584 309.978 584.576C310.33 585.12 310.506 585.744 310.506 586.448C310.506 587.12 310.33 587.744 309.978 588.32C309.626 588.896 309.162 589.36 308.586 589.712C308.01 590.064 307.37 590.24 306.666 590.24Z" fill="black"/>
</svg>
