<svg width="518" height="481" viewBox="0 0 518 481" fill="none" xmlns="http://www.w3.org/2000/svg">
<ellipse cx="259" cy="176.5" rx="178" ry="176.5" fill="#8EC2AC"/>
<path d="M67.8731 398.84V394.328H81.0731V398.84H67.8731ZM67.7291 384.824L68.8331 383.288V409.208L67.4891 408.44H83.9051V413H64.0331V380.312H83.9051V384.824H67.7291ZM73.4891 377L71.0891 374.504L78.3851 367.784L80.8331 370.232L73.4891 377ZM113.928 413.48C111.816 413.48 109.976 412.984 108.408 411.992C106.84 410.968 105.608 409.544 104.712 407.72C103.848 405.896 103.416 403.768 103.416 401.336C103.416 398.872 103.848 396.728 104.712 394.904C105.608 393.08 106.84 391.656 108.408 390.632C109.976 389.608 111.816 389.096 113.928 389.096C116.104 389.096 117.992 389.608 119.592 390.632C121.224 391.656 122.488 393.08 123.384 394.904C124.28 396.728 124.728 398.872 124.728 401.336C124.728 403.768 124.28 405.896 123.384 407.72C122.488 409.544 121.224 410.968 119.592 411.992C117.992 412.984 116.104 413.48 113.928 413.48ZM102.072 422.12V389.576H105.72L106.872 394.28H106.392V407.624H106.872V422.12H102.072ZM113.208 409.352C115.192 409.352 116.792 408.616 118.008 407.144C119.224 405.672 119.832 403.736 119.832 401.336C119.832 398.904 119.224 396.952 118.008 395.48C116.792 393.976 115.192 393.224 113.208 393.224C111.256 393.224 109.672 393.96 108.456 395.432C107.24 396.904 106.632 398.856 106.632 401.288C106.632 403.72 107.24 405.672 108.456 407.144C109.672 408.616 111.256 409.352 113.208 409.352ZM139.07 413.48C136.702 413.48 134.606 412.984 132.782 411.992C130.99 410.968 129.598 409.544 128.605 407.72C127.613 405.896 127.118 403.768 127.118 401.336C127.118 398.872 127.613 396.728 128.605 394.904C129.598 393.08 130.99 391.656 132.782 390.632C134.606 389.608 136.702 389.096 139.07 389.096C141.47 389.096 143.566 389.608 145.358 390.632C147.15 391.656 148.542 393.08 149.534 394.904C150.558 396.728 151.07 398.872 151.07 401.336C151.07 403.768 150.558 405.896 149.534 407.72C148.542 409.544 147.15 410.968 145.358 411.992C143.566 412.984 141.47 413.48 139.07 413.48ZM139.07 408.872C141.214 408.872 142.926 408.184 144.206 406.808C145.518 405.4 146.174 403.576 146.174 401.336C146.174 399.064 145.518 397.224 144.206 395.816C142.926 394.408 141.214 393.704 139.07 393.704C136.958 393.704 135.246 394.408 133.934 395.816C132.654 397.192 132.014 399.016 132.014 401.288C132.014 403.56 132.654 405.4 133.934 406.808C135.246 408.184 136.958 408.872 139.07 408.872ZM162.857 413.48C161.225 413.48 159.609 413.096 158.009 412.328C156.441 411.56 155.145 410.248 154.121 408.392L157.769 405.992C158.665 407.176 159.513 408.04 160.313 408.584C161.113 409.096 162.153 409.352 163.433 409.352C164.457 409.352 165.241 409.096 165.785 408.584C166.361 408.04 166.649 407.384 166.649 406.616C166.649 406.104 166.505 405.656 166.217 405.272C165.961 404.888 165.497 404.536 164.825 404.216C164.153 403.864 163.193 403.528 161.945 403.208C159.641 402.6 157.865 401.8 156.617 400.808C155.369 399.816 154.745 398.248 154.745 396.104C154.745 394.824 155.065 393.656 155.705 392.6C156.345 391.544 157.273 390.696 158.489 390.056C159.705 389.416 161.145 389.096 162.809 389.096C164.793 389.096 166.489 389.512 167.897 390.344C169.305 391.144 170.409 392.104 171.209 393.224L167.513 395.96C167.065 395.384 166.409 394.824 165.545 394.28C164.681 393.704 163.593 393.416 162.281 393.416C161.481 393.416 160.745 393.64 160.073 394.088C159.401 394.536 159.065 395.16 159.065 395.96C159.065 396.76 159.369 397.416 159.977 397.928C160.617 398.408 161.769 398.84 163.433 399.224C166.249 399.896 168.249 400.776 169.433 401.864C170.617 402.92 171.209 404.328 171.209 406.088C171.209 407.624 170.809 408.952 170.009 410.072C169.241 411.16 168.217 412.008 166.937 412.616C165.689 413.192 164.329 413.48 162.857 413.48ZM182.873 413.48C181.241 413.48 179.625 413.096 178.025 412.328C176.457 411.56 175.161 410.248 174.137 408.392L177.785 405.992C178.681 407.176 179.529 408.04 180.329 408.584C181.129 409.096 182.169 409.352 183.449 409.352C184.473 409.352 185.257 409.096 185.801 408.584C186.377 408.04 186.665 407.384 186.665 406.616C186.665 406.104 186.521 405.656 186.233 405.272C185.977 404.888 185.513 404.536 184.841 404.216C184.169 403.864 183.209 403.528 181.961 403.208C179.657 402.6 177.881 401.8 176.633 400.808C175.385 399.816 174.761 398.248 174.761 396.104C174.761 394.824 175.081 393.656 175.721 392.6C176.361 391.544 177.289 390.696 178.505 390.056C179.721 389.416 181.161 389.096 182.825 389.096C184.809 389.096 186.505 389.512 187.913 390.344C189.321 391.144 190.425 392.104 191.225 393.224L187.529 395.96C187.081 395.384 186.425 394.824 185.561 394.28C184.697 393.704 183.609 393.416 182.297 393.416C181.497 393.416 180.761 393.64 180.089 394.088C179.417 394.536 179.081 395.16 179.081 395.96C179.081 396.76 179.385 397.416 179.993 397.928C180.633 398.408 181.785 398.84 183.449 399.224C186.265 399.896 188.265 400.776 189.449 401.864C190.633 402.92 191.225 404.328 191.225 406.088C191.225 407.624 190.825 408.952 190.025 410.072C189.257 411.16 188.233 412.008 186.953 412.616C185.705 413.192 184.345 413.48 182.873 413.48ZM200.999 413H196.199V389.576H200.999V413ZM195.479 382.376C195.479 381.448 195.751 380.696 196.295 380.12C196.871 379.512 197.639 379.208 198.599 379.208C199.527 379.208 200.279 379.512 200.855 380.12C201.431 380.696 201.719 381.448 201.719 382.376C201.719 383.272 201.431 384.024 200.855 384.632C200.279 385.208 199.527 385.496 198.599 385.496C197.639 385.496 196.871 385.208 196.295 384.632C195.751 384.024 195.479 383.272 195.479 382.376ZM227.708 389.576L218.876 413H214.316L205.004 389.576H210.332L216.859 407.768H216.236L222.476 389.576H227.708ZM240.917 413.48C238.645 413.48 236.645 412.984 234.917 411.992C233.189 410.968 231.845 409.544 230.885 407.72C229.925 405.896 229.445 403.768 229.445 401.336C229.445 398.872 229.925 396.728 230.885 394.904C231.845 393.08 233.189 391.656 234.917 390.632C236.645 389.608 238.645 389.096 240.917 389.096C243.221 389.096 245.237 389.608 246.965 390.632C248.693 391.656 250.037 393.08 250.997 394.904C251.957 396.728 252.437 398.872 252.437 401.336C252.437 401.56 252.421 401.8 252.389 402.056C252.389 402.28 252.373 402.488 252.341 402.68H234.005V398.552H248.885L247.541 401.336C247.541 398.904 246.997 396.904 245.909 395.336C244.821 393.768 243.157 392.984 240.917 392.984C238.933 392.984 237.349 393.624 236.165 394.904C234.981 396.152 234.389 397.8 234.389 399.848V402.344C234.389 404.488 234.965 406.2 236.117 407.48C237.269 408.728 238.869 409.352 240.917 409.352C242.805 409.352 244.261 408.952 245.285 408.152C246.309 407.352 247.205 406.36 247.973 405.176L251.573 407.432C250.485 409.448 249.077 410.968 247.349 411.992C245.653 412.984 243.509 413.48 240.917 413.48ZM260.985 413.24C260.153 413.24 259.417 413.048 258.777 412.664C258.137 412.248 257.625 411.656 257.241 410.888C256.889 410.12 256.713 409.176 256.713 408.056V380.312H261.417V406.376C261.417 407.368 261.657 408.04 262.137 408.392C262.649 408.744 263.225 408.92 263.865 408.92V412.76C263.449 412.92 263.001 413.032 262.521 413.096C262.041 413.192 261.529 413.24 260.985 413.24ZM290.401 413.48C288.257 413.48 286.369 412.968 284.737 411.944C283.105 410.92 281.841 409.496 280.945 407.672C280.049 405.816 279.601 403.672 279.601 401.24C279.601 398.808 280.049 396.68 280.945 394.856C281.841 393.032 283.105 391.624 284.737 390.632C286.369 389.608 288.257 389.096 290.401 389.096C292.513 389.096 294.353 389.608 295.921 390.632C297.489 391.624 298.705 393.032 299.569 394.856C300.465 396.68 300.913 398.808 300.913 401.24C300.913 403.672 300.465 405.816 299.569 407.672C298.705 409.496 297.489 410.92 295.921 411.944C294.353 412.968 292.513 413.48 290.401 413.48ZM291.121 409.352C293.105 409.352 294.689 408.616 295.873 407.144C297.089 405.672 297.697 403.72 297.697 401.288C297.697 398.856 297.089 396.904 295.873 395.432C294.689 393.96 293.105 393.224 291.121 393.224C289.137 393.224 287.537 393.96 286.321 395.432C285.105 396.904 284.497 398.84 284.497 401.24C284.497 403.672 285.105 405.64 286.321 407.144C287.537 408.616 289.137 409.352 291.121 409.352ZM298.609 413L297.457 408.296H297.937V394.952H297.457V380.312H302.257V413H298.609ZM318.213 413.48C315.941 413.48 313.941 412.984 312.213 411.992C310.485 410.968 309.141 409.544 308.181 407.72C307.221 405.896 306.741 403.768 306.741 401.336C306.741 398.872 307.221 396.728 308.181 394.904C309.141 393.08 310.485 391.656 312.213 390.632C313.941 389.608 315.941 389.096 318.213 389.096C320.517 389.096 322.533 389.608 324.261 390.632C325.989 391.656 327.333 393.08 328.293 394.904C329.253 396.728 329.733 398.872 329.733 401.336C329.733 401.56 329.717 401.8 329.685 402.056C329.685 402.28 329.669 402.488 329.637 402.68H311.301V398.552H326.181L324.837 401.336C324.837 398.904 324.293 396.904 323.205 395.336C322.117 393.768 320.453 392.984 318.213 392.984C316.229 392.984 314.645 393.624 313.461 394.904C312.277 396.152 311.685 397.8 311.685 399.848V402.344C311.685 404.488 312.261 406.2 313.413 407.48C314.565 408.728 316.165 409.352 318.213 409.352C320.101 409.352 321.557 408.952 322.581 408.152C323.605 407.352 324.501 406.36 325.269 405.176L328.869 407.432C327.781 409.448 326.373 410.968 324.645 411.992C322.949 412.984 320.805 413.48 318.213 413.48ZM353.989 389.576L345.157 413H340.597L331.285 389.576H336.613L343.141 407.768H342.517L348.757 389.576H353.989ZM367.726 413.48C365.358 413.48 363.262 412.984 361.438 411.992C359.646 410.968 358.254 409.544 357.262 407.72C356.27 405.896 355.774 403.768 355.774 401.336C355.774 398.872 356.27 396.728 357.262 394.904C358.254 393.08 359.646 391.656 361.438 390.632C363.262 389.608 365.358 389.096 367.726 389.096C370.126 389.096 372.222 389.608 374.014 390.632C375.806 391.656 377.198 393.08 378.19 394.904C379.214 396.728 379.726 398.872 379.726 401.336C379.726 403.768 379.214 405.896 378.19 407.72C377.198 409.544 375.806 410.968 374.014 411.992C372.222 412.984 370.126 413.48 367.726 413.48ZM367.726 408.872C369.87 408.872 371.582 408.184 372.862 406.808C374.174 405.4 374.83 403.576 374.83 401.336C374.83 399.064 374.174 397.224 372.862 395.816C371.582 394.408 369.87 393.704 367.726 393.704C365.614 393.704 363.902 394.408 362.59 395.816C361.31 397.192 360.67 399.016 360.67 401.288C360.67 403.56 361.31 405.4 362.59 406.808C363.902 408.184 365.614 408.872 367.726 408.872ZM388.532 413.24C387.7 413.24 386.964 413.048 386.324 412.664C385.684 412.248 385.172 411.656 384.788 410.888C384.436 410.12 384.26 409.176 384.26 408.056V380.312H388.964V406.376C388.964 407.368 389.204 408.04 389.684 408.392C390.196 408.744 390.772 408.92 391.412 408.92V412.76C390.996 412.92 390.548 413.032 390.068 413.096C389.588 413.192 389.076 413.24 388.532 413.24ZM416.333 389.576L407.501 413H402.941L393.629 389.576H398.957L405.484 407.768H404.861L411.101 389.576H416.333ZM429.542 413.48C427.27 413.48 425.27 412.984 423.542 411.992C421.814 410.968 420.47 409.544 419.51 407.72C418.55 405.896 418.07 403.768 418.07 401.336C418.07 398.872 418.55 396.728 419.51 394.904C420.47 393.08 421.814 391.656 423.542 390.632C425.27 389.608 427.27 389.096 429.542 389.096C431.846 389.096 433.862 389.608 435.59 390.632C437.318 391.656 438.662 393.08 439.622 394.904C440.582 396.728 441.062 398.872 441.062 401.336C441.062 401.56 441.046 401.8 441.014 402.056C441.014 402.28 440.998 402.488 440.966 402.68H422.63V398.552H437.51L436.166 401.336C436.166 398.904 435.622 396.904 434.534 395.336C433.446 393.768 431.782 392.984 429.542 392.984C427.558 392.984 425.974 393.624 424.79 394.904C423.606 396.152 423.014 397.8 423.014 399.848V402.344C423.014 404.488 423.59 406.2 424.742 407.48C425.894 408.728 427.494 409.352 429.542 409.352C431.43 409.352 432.886 408.952 433.91 408.152C434.934 407.352 435.83 406.36 436.598 405.176L440.198 407.432C439.11 409.448 437.702 410.968 435.974 411.992C434.278 412.984 432.134 413.48 429.542 413.48ZM449.22 389.576L450.372 395.912V413H445.572V389.576H449.22ZM449.652 397.88L448.5 397.352V393.848L448.932 393.32C449.252 392.744 449.748 392.136 450.42 391.496C451.124 390.824 451.94 390.264 452.868 389.816C453.796 389.336 454.74 389.096 455.7 389.096C456.18 389.096 456.628 389.128 457.044 389.192C457.492 389.256 457.828 389.368 458.052 389.528V393.848H456.564C454.388 393.848 452.804 394.184 451.812 394.856C450.82 395.496 450.1 396.504 449.652 397.88ZM8.84906 471.48C7.21706 471.48 5.60106 471.096 4.00106 470.328C2.43306 469.56 1.13706 468.248 0.113063 466.392L3.76106 463.992C4.65706 465.176 5.50506 466.04 6.30506 466.584C7.10506 467.096 8.14506 467.352 9.42506 467.352C10.4491 467.352 11.2331 467.096 11.7771 466.584C12.3531 466.04 12.6411 465.384 12.6411 464.616C12.6411 464.104 12.4971 463.656 12.2091 463.272C11.9531 462.888 11.4891 462.536 10.8171 462.216C10.1451 461.864 9.18506 461.528 7.93706 461.208C5.63306 460.6 3.85706 459.8 2.60906 458.808C1.36106 457.816 0.737063 456.248 0.737063 454.104C0.737063 452.824 1.05706 451.656 1.69706 450.6C2.33706 449.544 3.26506 448.696 4.48106 448.056C5.69706 447.416 7.13706 447.096 8.80106 447.096C10.7851 447.096 12.4811 447.512 13.8891 448.344C15.2971 449.144 16.4011 450.104 17.2011 451.224L13.5051 453.96C13.0571 453.384 12.4011 452.824 11.5371 452.28C10.6731 451.704 9.58506 451.416 8.27306 451.416C7.47306 451.416 6.73706 451.64 6.06506 452.088C5.39306 452.536 5.05706 453.16 5.05706 453.96C5.05706 454.76 5.36106 455.416 5.96906 455.928C6.60906 456.408 7.76106 456.84 9.42506 457.224C12.2411 457.896 14.2411 458.776 15.4251 459.864C16.6091 460.92 17.2011 462.328 17.2011 464.088C17.2011 465.624 16.8011 466.952 16.0011 468.072C15.2331 469.16 14.2091 470.008 12.9291 470.616C11.6811 471.192 10.3211 471.48 8.84906 471.48ZM31.8774 471.48C29.6054 471.48 27.6054 470.984 25.8774 469.992C24.1494 468.968 22.8054 467.544 21.8454 465.72C20.8854 463.896 20.4054 461.768 20.4054 459.336C20.4054 456.872 20.8854 454.728 21.8454 452.904C22.8054 451.08 24.1494 449.656 25.8774 448.632C27.6054 447.608 29.6054 447.096 31.8774 447.096C34.1814 447.096 36.1974 447.608 37.9254 448.632C39.6534 449.656 40.9974 451.08 41.9574 452.904C42.9174 454.728 43.3974 456.872 43.3974 459.336C43.3974 459.56 43.3814 459.8 43.3494 460.056C43.3494 460.28 43.3334 460.488 43.3014 460.68H24.9654V456.552H39.8454L38.5014 459.336C38.5014 456.904 37.9574 454.904 36.8694 453.336C35.7814 451.768 34.1174 450.984 31.8774 450.984C29.8934 450.984 28.3094 451.624 27.1254 452.904C25.9414 454.152 25.3494 455.8 25.3494 457.848V460.344C25.3494 462.488 25.9254 464.2 27.0774 465.48C28.2294 466.728 29.8294 467.352 31.8774 467.352C33.7654 467.352 35.2214 466.952 36.2454 466.152C37.2694 465.352 38.1654 464.36 38.9334 463.176L42.5334 465.432C41.4454 467.448 40.0374 468.968 38.3094 469.992C36.6134 470.984 34.4694 471.48 31.8774 471.48ZM54.8312 471.48C53.0712 471.48 51.6792 471.208 50.6552 470.664C49.6312 470.088 48.8792 469.336 48.3992 468.408C47.9192 467.448 47.5992 466.376 47.4392 465.192C47.3112 464.008 47.2472 462.792 47.2472 461.544V447.576H52.0472V462.552C52.0472 464.216 52.4152 465.336 53.1512 465.912C53.9192 466.488 54.8152 466.776 55.8392 466.776C56.8952 466.776 57.9352 466.568 58.9592 466.152C60.0152 465.736 60.9592 465.176 61.7912 464.472C62.6552 463.736 63.2952 462.952 63.7112 462.12V464.808H62.9432V447.576H67.7432V471H64.0952L63.0872 466.872L64.2872 466.728C63.4552 467.72 62.5272 468.584 61.5032 469.32C60.4792 470.024 59.4072 470.568 58.2872 470.952C57.1672 471.304 56.0152 471.48 54.8312 471.48ZM81.1303 471.48C79.4983 471.48 77.8823 471.096 76.2823 470.328C74.7143 469.56 73.4183 468.248 72.3943 466.392L76.0423 463.992C76.9383 465.176 77.7863 466.04 78.5863 466.584C79.3863 467.096 80.4263 467.352 81.7063 467.352C82.7303 467.352 83.5143 467.096 84.0583 466.584C84.6343 466.04 84.9223 465.384 84.9223 464.616C84.9223 464.104 84.7783 463.656 84.4903 463.272C84.2343 462.888 83.7703 462.536 83.0983 462.216C82.4263 461.864 81.4663 461.528 80.2183 461.208C77.9143 460.6 76.1383 459.8 74.8903 458.808C73.6423 457.816 73.0183 456.248 73.0183 454.104C73.0183 452.824 73.3383 451.656 73.9783 450.6C74.6183 449.544 75.5463 448.696 76.7623 448.056C77.9783 447.416 79.4183 447.096 81.0823 447.096C83.0663 447.096 84.7623 447.512 86.1703 448.344C87.5783 449.144 88.6823 450.104 89.4823 451.224L85.7863 453.96C85.3383 453.384 84.6823 452.824 83.8183 452.28C82.9543 451.704 81.8663 451.416 80.5543 451.416C79.7543 451.416 79.0183 451.64 78.3463 452.088C77.6743 452.536 77.3383 453.16 77.3383 453.96C77.3383 454.76 77.6423 455.416 78.2503 455.928C78.8903 456.408 80.0423 456.84 81.7063 457.224C84.5223 457.896 86.5223 458.776 87.7063 459.864C88.8903 460.92 89.4823 462.328 89.4823 464.088C89.4823 465.624 89.0823 466.952 88.2823 468.072C87.5143 469.16 86.4903 470.008 85.2103 470.616C83.9623 471.192 82.6023 471.48 81.1303 471.48ZM111.102 471.24C110.27 471.24 109.534 471.048 108.894 470.664C108.254 470.248 107.742 469.656 107.358 468.888C107.006 468.12 106.83 467.176 106.83 466.056V438.312H111.534V464.376C111.534 465.368 111.774 466.04 112.254 466.392C112.766 466.744 113.342 466.92 113.982 466.92V470.76C113.566 470.92 113.118 471.032 112.638 471.096C112.158 471.192 111.646 471.24 111.102 471.24ZM123.585 471H118.785V447.576H123.585V471ZM118.065 440.376C118.065 439.448 118.337 438.696 118.881 438.12C119.457 437.512 120.225 437.208 121.185 437.208C122.113 437.208 122.865 437.512 123.441 438.12C124.017 438.696 124.305 439.448 124.305 440.376C124.305 441.272 124.017 442.024 123.441 442.632C122.865 443.208 122.113 443.496 121.185 443.496C120.225 443.496 119.457 443.208 118.881 442.632C118.337 442.024 118.065 441.272 118.065 440.376ZM150.293 447.576L141.461 471H136.901L127.589 447.576H132.917L139.445 465.768H138.821L145.061 447.576H150.293ZM157.822 447.576L158.974 453.912V471H154.174V447.576H157.822ZM158.254 455.88L157.102 455.352V451.848L157.534 451.32C157.854 450.744 158.35 450.136 159.022 449.496C159.726 448.824 160.542 448.264 161.47 447.816C162.398 447.336 163.342 447.096 164.302 447.096C164.782 447.096 165.23 447.128 165.646 447.192C166.094 447.256 166.43 447.368 166.654 447.528V451.848H165.166C162.99 451.848 161.406 452.184 160.414 452.856C159.422 453.496 158.702 454.504 158.254 455.88ZM179.593 471.48C177.225 471.48 175.129 470.984 173.305 469.992C171.513 468.968 170.121 467.544 169.129 465.72C168.137 463.896 167.641 461.768 167.641 459.336C167.641 456.872 168.137 454.728 169.129 452.904C170.121 451.08 171.513 449.656 173.305 448.632C175.129 447.608 177.225 447.096 179.593 447.096C181.993 447.096 184.089 447.608 185.881 448.632C187.673 449.656 189.065 451.08 190.057 452.904C191.081 454.728 191.593 456.872 191.593 459.336C191.593 461.768 191.081 463.896 190.057 465.72C189.065 467.544 187.673 468.968 185.881 469.992C184.089 470.984 181.993 471.48 179.593 471.48ZM179.593 466.872C181.737 466.872 183.449 466.184 184.729 464.808C186.041 463.4 186.697 461.576 186.697 459.336C186.697 457.064 186.041 455.224 184.729 453.816C183.449 452.408 181.737 451.704 179.593 451.704C177.481 451.704 175.769 452.408 174.457 453.816C173.177 455.192 172.537 457.016 172.537 459.288C172.537 461.56 173.177 463.4 174.457 464.808C175.769 466.184 177.481 466.872 179.593 466.872ZM203.38 471.48C201.748 471.48 200.132 471.096 198.532 470.328C196.964 469.56 195.668 468.248 194.644 466.392L198.292 463.992C199.188 465.176 200.036 466.04 200.836 466.584C201.636 467.096 202.676 467.352 203.956 467.352C204.98 467.352 205.764 467.096 206.308 466.584C206.884 466.04 207.172 465.384 207.172 464.616C207.172 464.104 207.028 463.656 206.74 463.272C206.484 462.888 206.02 462.536 205.348 462.216C204.676 461.864 203.716 461.528 202.468 461.208C200.164 460.6 198.388 459.8 197.14 458.808C195.892 457.816 195.268 456.248 195.268 454.104C195.268 452.824 195.588 451.656 196.228 450.6C196.868 449.544 197.796 448.696 199.012 448.056C200.228 447.416 201.668 447.096 203.332 447.096C205.316 447.096 207.012 447.512 208.42 448.344C209.828 449.144 210.932 450.104 211.732 451.224L208.036 453.96C207.588 453.384 206.932 452.824 206.068 452.28C205.204 451.704 204.116 451.416 202.804 451.416C202.004 451.416 201.268 451.64 200.596 452.088C199.924 452.536 199.588 453.16 199.588 453.96C199.588 454.76 199.892 455.416 200.5 455.928C201.14 456.408 202.292 456.84 203.956 457.224C206.772 457.896 208.772 458.776 209.956 459.864C211.14 460.92 211.732 462.328 211.732 464.088C211.732 465.624 211.332 466.952 210.532 468.072C209.764 469.16 208.74 470.008 207.46 470.616C206.212 471.192 204.852 471.48 203.38 471.48ZM239.112 471.48C236.84 471.48 234.84 470.984 233.112 469.992C231.384 468.968 230.04 467.544 229.08 465.72C228.12 463.896 227.64 461.768 227.64 459.336C227.64 456.872 228.12 454.728 229.08 452.904C230.04 451.08 231.384 449.656 233.112 448.632C234.84 447.608 236.84 447.096 239.112 447.096C241.416 447.096 243.432 447.608 245.16 448.632C246.888 449.656 248.232 451.08 249.192 452.904C250.152 454.728 250.632 456.872 250.632 459.336C250.632 459.56 250.616 459.8 250.584 460.056C250.584 460.28 250.568 460.488 250.536 460.68H232.2V456.552H247.08L245.736 459.336C245.736 456.904 245.192 454.904 244.104 453.336C243.016 451.768 241.352 450.984 239.112 450.984C237.128 450.984 235.544 451.624 234.36 452.904C233.176 454.152 232.584 455.8 232.584 457.848V460.344C232.584 462.488 233.16 464.2 234.312 465.48C235.464 466.728 237.064 467.352 239.112 467.352C241 467.352 242.456 466.952 243.48 466.152C244.504 465.352 245.4 464.36 246.168 463.176L249.768 465.432C248.68 467.448 247.272 468.968 245.544 469.992C243.848 470.984 241.704 471.48 239.112 471.48ZM255.142 471V447.576H258.79L259.798 451.704L258.598 451.848C259.462 450.824 260.374 449.96 261.334 449.256C262.294 448.552 263.318 448.024 264.406 447.672C265.494 447.288 266.63 447.096 267.814 447.096C269.478 447.096 270.79 447.384 271.75 447.96C272.71 448.504 273.414 449.256 273.862 450.216C274.31 451.144 274.598 452.2 274.726 453.384C274.854 454.568 274.918 455.784 274.918 457.032V471H270.118V456.024C270.118 454.36 269.734 453.24 268.966 452.664C268.23 452.088 267.35 451.8 266.326 451.8C264.854 451.8 263.446 452.264 262.102 453.192C260.758 454.088 259.782 455.176 259.174 456.456V453.768H259.942V471H255.142ZM285.094 471V456.024C285.094 454.36 284.71 453.24 283.942 452.664C283.206 452.088 282.326 451.8 281.302 451.8C279.83 451.8 278.422 452.264 277.078 453.192C275.734 454.088 274.758 455.176 274.15 456.456L273.574 451.848C274.438 450.824 275.35 449.96 276.31 449.256C277.27 448.552 278.294 448.024 279.382 447.672C280.47 447.288 281.606 447.096 282.79 447.096C284.454 447.096 285.766 447.384 286.726 447.96C287.686 448.504 288.39 449.256 288.838 450.216C289.286 451.144 289.574 452.2 289.702 453.384C289.83 454.568 289.894 455.784 289.894 457.032V471H285.094ZM315.787 471.48C314.155 471.48 312.539 471.096 310.939 470.328C309.371 469.56 308.075 468.248 307.051 466.392L310.699 463.992C311.595 465.176 312.443 466.04 313.243 466.584C314.043 467.096 315.083 467.352 316.363 467.352C317.387 467.352 318.171 467.096 318.715 466.584C319.291 466.04 319.579 465.384 319.579 464.616C319.579 464.104 319.435 463.656 319.147 463.272C318.891 462.888 318.427 462.536 317.755 462.216C317.083 461.864 316.123 461.528 314.875 461.208C312.571 460.6 310.795 459.8 309.547 458.808C308.299 457.816 307.675 456.248 307.675 454.104C307.675 452.824 307.995 451.656 308.635 450.6C309.275 449.544 310.203 448.696 311.419 448.056C312.635 447.416 314.075 447.096 315.739 447.096C317.723 447.096 319.419 447.512 320.827 448.344C322.235 449.144 323.339 450.104 324.139 451.224L320.443 453.96C319.995 453.384 319.339 452.824 318.475 452.28C317.611 451.704 316.523 451.416 315.211 451.416C314.411 451.416 313.675 451.64 313.003 452.088C312.331 452.536 311.995 453.16 311.995 453.96C311.995 454.76 312.299 455.416 312.907 455.928C313.547 456.408 314.699 456.84 316.363 457.224C319.179 457.896 321.179 458.776 322.363 459.864C323.547 460.92 324.139 462.328 324.139 464.088C324.139 465.624 323.739 466.952 322.939 468.072C322.171 469.16 321.147 470.008 319.867 470.616C318.619 471.192 317.259 471.48 315.787 471.48ZM338.815 471.48C336.543 471.48 334.543 470.984 332.815 469.992C331.087 468.968 329.743 467.544 328.783 465.72C327.823 463.896 327.343 461.768 327.343 459.336C327.343 456.872 327.823 454.728 328.783 452.904C329.743 451.08 331.087 449.656 332.815 448.632C334.543 447.608 336.543 447.096 338.815 447.096C341.119 447.096 343.135 447.608 344.863 448.632C346.591 449.656 347.935 451.08 348.895 452.904C349.855 454.728 350.335 456.872 350.335 459.336C350.335 459.56 350.319 459.8 350.287 460.056C350.287 460.28 350.271 460.488 350.239 460.68H331.903V456.552H346.783L345.439 459.336C345.439 456.904 344.895 454.904 343.807 453.336C342.719 451.768 341.055 450.984 338.815 450.984C336.831 450.984 335.247 451.624 334.063 452.904C332.879 454.152 332.287 455.8 332.287 457.848V460.344C332.287 462.488 332.863 464.2 334.015 465.48C335.167 466.728 336.767 467.352 338.815 467.352C340.703 467.352 342.159 466.952 343.183 466.152C344.207 465.352 345.103 464.36 345.871 463.176L349.471 465.432C348.383 467.448 346.975 468.968 345.247 469.992C343.551 470.984 341.407 471.48 338.815 471.48ZM365.165 480.504C363.821 480.504 362.541 480.312 361.325 479.928C360.141 479.576 359.053 478.984 358.061 478.152C357.101 477.32 356.237 476.216 355.469 474.84L355.133 474.216L358.925 472.152C359.757 473.528 360.637 474.552 361.565 475.224C362.525 475.928 363.725 476.28 365.165 476.28C367.117 476.28 368.653 475.672 369.773 474.456C370.925 473.24 371.501 471.368 371.501 468.84V463.848H371.981V452.28H371.501L372.653 447.576H376.301V468.072C376.301 470.824 375.805 473.128 374.813 474.984C373.853 476.84 372.541 478.216 370.877 479.112C369.213 480.04 367.309 480.504 365.165 480.504ZM364.589 469.56C362.413 469.56 360.493 469.096 358.829 468.168C357.197 467.24 355.917 465.944 354.989 464.28C354.093 462.584 353.645 460.616 353.645 458.376C353.645 456.104 354.093 454.136 354.989 452.472C355.917 450.776 357.197 449.464 358.829 448.536C360.493 447.576 362.413 447.096 364.589 447.096C366.669 447.096 368.477 447.576 370.013 448.536C371.581 449.464 372.797 450.776 373.661 452.472C374.525 454.136 374.957 456.104 374.957 458.376C374.957 460.616 374.525 462.584 373.661 464.28C372.797 465.944 371.581 467.24 370.013 468.168C368.477 469.096 366.669 469.56 364.589 469.56ZM365.165 465.432C367.149 465.432 368.733 464.792 369.917 463.512C371.133 462.2 371.741 460.472 371.741 458.328C371.741 456.184 371.133 454.472 369.917 453.192C368.733 451.88 367.149 451.224 365.165 451.224C363.181 451.224 361.581 451.88 360.365 453.192C359.149 454.504 358.541 456.232 358.541 458.376C358.541 460.488 359.149 462.2 360.365 463.512C361.581 464.792 363.181 465.432 365.165 465.432ZM389.847 471.48C388.087 471.48 386.695 471.208 385.671 470.664C384.647 470.088 383.895 469.336 383.415 468.408C382.935 467.448 382.615 466.376 382.455 465.192C382.327 464.008 382.263 462.792 382.263 461.544V447.576H387.063V462.552C387.063 464.216 387.431 465.336 388.167 465.912C388.935 466.488 389.831 466.776 390.855 466.776C391.911 466.776 392.951 466.568 393.975 466.152C395.031 465.736 395.975 465.176 396.807 464.472C397.671 463.736 398.311 462.952 398.727 462.12V464.808H397.959V447.576H402.759V471H399.111L398.103 466.872L399.303 466.728C398.471 467.72 397.543 468.584 396.519 469.32C395.495 470.024 394.423 470.568 393.303 470.952C392.183 471.304 391.031 471.48 389.847 471.48ZM422.284 447.096C423.948 447.096 425.26 447.384 426.22 447.96C427.18 448.504 427.884 449.256 428.332 450.216C428.78 451.144 429.068 452.2 429.196 453.384C429.324 454.568 429.388 455.784 429.388 457.032V471H424.588V456.024C424.588 454.36 424.204 453.24 423.436 452.664C422.7 452.088 421.82 451.8 420.796 451.8C419.772 451.8 418.732 452.008 417.676 452.424C416.62 452.84 415.676 453.4 414.844 454.104C414.012 454.808 413.372 455.592 412.924 456.456V453.768H413.692V471H408.892V447.576H412.54L413.548 451.704L412.348 451.848C413.244 450.824 414.22 449.96 415.276 449.256C416.332 448.552 417.452 448.024 418.636 447.672C419.82 447.288 421.036 447.096 422.284 447.096ZM444.455 471.48C442.311 471.48 440.423 470.968 438.791 469.944C437.159 468.92 435.895 467.496 434.999 465.672C434.103 463.816 433.655 461.672 433.655 459.24C433.655 456.808 434.103 454.68 434.999 452.856C435.895 451.032 437.159 449.624 438.791 448.632C440.423 447.608 442.311 447.096 444.455 447.096C446.567 447.096 448.407 447.608 449.975 448.632C451.543 449.624 452.759 451.032 453.623 452.856C454.519 454.68 454.967 456.808 454.967 459.24C454.967 461.672 454.519 463.816 453.623 465.672C452.759 467.496 451.543 468.92 449.975 469.944C448.407 470.968 446.567 471.48 444.455 471.48ZM445.175 467.352C447.159 467.352 448.743 466.616 449.927 465.144C451.143 463.672 451.751 461.72 451.751 459.288C451.751 456.856 451.143 454.904 449.927 453.432C448.743 451.96 447.159 451.224 445.175 451.224C443.191 451.224 441.591 451.96 440.375 453.432C439.159 454.904 438.551 456.84 438.551 459.24C438.551 461.672 439.159 463.64 440.375 465.144C441.591 466.616 443.191 467.352 445.175 467.352ZM452.663 471L451.511 466.296H451.991V452.952H451.511V438.312H456.311V471H452.663ZM472.796 471.48C470.428 471.48 468.332 470.984 466.508 469.992C464.716 468.968 463.324 467.544 462.332 465.72C461.34 463.896 460.844 461.768 460.844 459.336C460.844 456.872 461.34 454.728 462.332 452.904C463.324 451.08 464.716 449.656 466.508 448.632C468.332 447.608 470.428 447.096 472.796 447.096C475.196 447.096 477.292 447.608 479.084 448.632C480.876 449.656 482.268 451.08 483.26 452.904C484.284 454.728 484.796 456.872 484.796 459.336C484.796 461.768 484.284 463.896 483.26 465.72C482.268 467.544 480.876 468.968 479.084 469.992C477.292 470.984 475.196 471.48 472.796 471.48ZM472.796 466.872C474.94 466.872 476.652 466.184 477.932 464.808C479.244 463.4 479.9 461.576 479.9 459.336C479.9 457.064 479.244 455.224 477.932 453.816C476.652 452.408 474.94 451.704 472.796 451.704C470.684 451.704 468.972 452.408 467.66 453.816C466.38 455.192 465.74 457.016 465.74 459.288C465.74 461.56 466.38 463.4 467.66 464.808C468.972 466.184 470.684 466.872 472.796 466.872ZM496.583 471.48C494.951 471.48 493.335 471.096 491.735 470.328C490.167 469.56 488.871 468.248 487.847 466.392L491.495 463.992C492.391 465.176 493.239 466.04 494.039 466.584C494.839 467.096 495.879 467.352 497.159 467.352C498.183 467.352 498.967 467.096 499.511 466.584C500.087 466.04 500.375 465.384 500.375 464.616C500.375 464.104 500.231 463.656 499.943 463.272C499.687 462.888 499.223 462.536 498.551 462.216C497.879 461.864 496.919 461.528 495.671 461.208C493.367 460.6 491.591 459.8 490.343 458.808C489.095 457.816 488.471 456.248 488.471 454.104C488.471 452.824 488.791 451.656 489.431 450.6C490.071 449.544 490.999 448.696 492.215 448.056C493.431 447.416 494.871 447.096 496.535 447.096C498.519 447.096 500.215 447.512 501.623 448.344C503.031 449.144 504.135 450.104 504.935 451.224L501.239 453.96C500.791 453.384 500.135 452.824 499.271 452.28C498.407 451.704 497.319 451.416 496.007 451.416C495.207 451.416 494.471 451.64 493.799 452.088C493.127 452.536 492.791 453.16 492.791 453.96C492.791 454.76 493.095 455.416 493.703 455.928C494.343 456.408 495.495 456.84 497.159 457.224C499.975 457.896 501.975 458.776 503.159 459.864C504.343 460.92 504.935 462.328 504.935 464.088C504.935 465.624 504.535 466.952 503.735 468.072C502.967 469.16 501.943 470.008 500.663 470.616C499.415 471.192 498.055 471.48 496.583 471.48ZM510.63 436.968H516.774L516.294 453.096L515.718 460.584H511.686L511.11 453.144L510.63 436.968ZM513.702 471.288C512.678 471.288 511.798 470.936 511.062 470.232C510.358 469.496 510.006 468.616 510.006 467.592C510.006 466.568 510.358 465.688 511.062 464.952C511.798 464.216 512.678 463.848 513.702 463.848C514.726 463.848 515.606 464.216 516.342 464.952C517.078 465.688 517.446 466.568 517.446 467.592C517.446 468.616 517.078 469.496 516.342 470.232C515.606 470.936 514.726 471.288 513.702 471.288Z" fill="black"/>
<path d="M257.5 142.958C257.5 134.781 254.251 126.938 248.469 121.156C242.687 115.374 234.844 112.125 226.667 112.125H180.417V227.75H234.375C240.508 227.75 246.39 230.186 250.727 234.523C255.063 238.86 257.5 244.742 257.5 250.875M257.5 142.958V250.875M257.5 142.958C257.5 134.781 260.748 126.938 266.531 121.156C272.313 115.374 280.156 112.125 288.333 112.125H334.583V227.75H280.625C274.492 227.75 268.61 230.186 264.273 234.523C259.936 238.86 257.5 244.742 257.5 250.875" stroke="#E0F3EB" stroke-width="4" stroke-linecap="round" stroke-linejoin="round"/>
<path d="M256.5 142.958C256.5 134.781 253.251 126.938 247.469 121.156C241.687 115.374 233.844 112.125 225.667 112.125H179.417V227.75H233.375C239.508 227.75 245.39 230.186 249.727 234.523C254.063 238.86 256.5 244.742 256.5 250.875M256.5 142.958V250.875M256.5 142.958C256.5 134.781 259.748 126.938 265.531 121.156C271.313 115.374 279.156 112.125 287.333 112.125H333.583V227.75H279.625C273.492 227.75 267.61 230.186 263.273 234.523C258.936 238.86 256.5 244.742 256.5 250.875" stroke="#E0F3EB" stroke-width="4" stroke-linecap="round" stroke-linejoin="round"/>
<path d="M258.5 142.958C258.5 134.781 255.251 126.938 249.469 121.156C243.687 115.374 235.844 112.125 227.667 112.125H181.417V227.75H235.375C241.508 227.75 247.39 230.186 251.727 234.523C256.063 238.86 258.5 244.742 258.5 250.875M258.5 142.958V250.875M258.5 142.958C258.5 134.781 261.748 126.938 267.531 121.156C273.313 115.374 281.156 112.125 289.333 112.125H335.583V227.75H281.625C275.492 227.75 269.61 230.186 265.273 234.523C260.936 238.86 258.5 244.742 258.5 250.875" stroke="#E0F3EB" stroke-width="4" stroke-linecap="round" stroke-linejoin="round"/>
</svg>
